<svg width="10" height="8" viewBox="0 0 10 8" fill="none" xmlns="http://www.w3.org/2000/svg">
<path d="M1.70711 3.79289C1.31658 3.40237 0.683417 3.40237 0.292893 3.79289C-0.0976311 4.18342 -0.0976311 4.81658 0.292893 5.20711L1.70711 3.79289ZM3.5 7L2.79289 7.70711C2.98576 7.89997 3.24904 8.00569 3.52172 7.99976C3.79441 7.99384 4.05285 7.87679 4.23715 7.67572L3.5 7ZM9.73715 1.67572C10.1103 1.26861 10.0828 0.636038 9.67572 0.262846C9.26861 -0.110347 8.63604 -0.0828437 8.26285 0.324275L9.73715 1.67572ZM0.292893 5.20711L2.79289 7.70711L4.20711 6.29289L1.70711 3.79289L0.292893 5.20711ZM4.23715 7.67572L9.73715 1.67572L8.26285 0.324275L2.76285 6.32428L4.23715 7.67572Z" fill="white"/>
</svg>
