<svg width="12" height="12" viewBox="0 0 12 12" fill="none" xmlns="http://www.w3.org/2000/svg">
<path d="M10.2444 1.75526C7.90405 -0.585132 4.09575 -0.585363 1.75513 1.75526C-0.585485 4.09587 -0.585254 7.90394 1.75513 10.2446C4.09552 12.5852 7.90382 12.5852 10.2444 10.2446C12.5848 7.90394 12.5848 4.09564 10.2444 1.75526ZM8.36695 8.36708C8.18664 8.54739 7.89435 8.54739 7.71404 8.36708L5.99978 6.65282L4.20403 8.44858C4.02372 8.62889 3.73143 8.62889 3.55112 8.44858C3.3708 8.26826 3.3708 7.97597 3.55112 7.79566L5.34687 5.99991L3.63261 4.28565C3.4523 4.10534 3.4523 3.81282 3.63261 3.63274C3.81293 3.45242 4.10522 3.45242 4.28553 3.63274L5.99978 5.34699L7.63231 3.71447C7.81262 3.53415 8.10491 3.53415 8.28522 3.71447C8.46554 3.89478 8.46554 4.18707 8.28522 4.36738L6.6527 5.99991L8.36695 7.71416C8.54727 7.89447 8.54727 8.18676 8.36695 8.36708Z" fill="black"/>
</svg>
