<svg width="16" height="16" viewBox="0 0 16 16" fill="none" xmlns="http://www.w3.org/2000/svg">
<path d="M13.6566 2.34343C12.1448 0.83165 10.138 0 8 0C5.86195 0 3.85522 0.83165 2.34343 2.34343C0.83165 3.85522 0 5.86195 0 8C0 10.138 0.83165 12.1448 2.34343 13.6566C3.85522 15.1684 5.86195 16 8 16C10.138 16 12.1448 15.1684 13.6566 13.6566C15.1684 12.1448 16 10.138 16 8C16 5.86195 15.1684 3.85522 13.6566 2.34343ZM13.0135 13.0135C11.6734 14.3535 9.89226 15.0909 8 15.0909C6.10774 15.0909 4.3266 14.3535 2.98653 13.0135C0.222222 10.2492 0.222222 5.75084 2.98653 2.98653C4.3266 1.64646 6.10774 0.909091 8 0.909091C9.89226 0.909091 11.6734 1.64646 13.0135 2.98653C15.7778 5.75084 15.7778 10.2492 13.0135 13.0135Z" fill="#777777"/>
<path d="M11.5257 4.47475C11.3472 4.2963 11.061 4.2963 10.8826 4.47475L8.00041 7.35691L5.11825 4.47475C4.93979 4.2963 4.6536 4.2963 4.47515 4.47475C4.2967 4.6532 4.2967 4.9394 4.47515 5.11785L7.35731 8L4.47515 10.8822C4.2967 11.0606 4.2967 11.3468 4.47515 11.5253C4.56269 11.6128 4.68053 11.6599 4.79501 11.6599C4.90949 11.6599 5.02734 11.6162 5.11488 11.5253L7.99704 8.6431L10.8792 11.5253C10.9667 11.6128 11.0846 11.6599 11.1991 11.6599C11.3169 11.6599 11.4314 11.6162 11.5189 11.5253C11.6974 11.3468 11.6974 11.0606 11.5189 10.8822L8.6435 8L11.5257 5.11785C11.7041 4.9394 11.7041 4.6532 11.5257 4.47475Z" fill="#777777"/>
</svg>
