<svg width="411" height="227" viewBox="0 0 411 227" fill="none" xmlns="http://www.w3.org/2000/svg">
<path d="M411 34.4999H410.945V114.878H411V34.4999Z" fill="white"/>
<path d="M343.924 194.224H366.007L368.193 197.851L366.411 201.202V208.014H391.783V205.602H394.612L410.926 216.998V226.018H323.163L276.499 194.224H276.903H314.657V195.734C314.657 195.734 314.565 196.839 314.676 198.238H312.508C307.676 198.238 303.763 202.159 303.763 207.001V208.455H335.142V207.001C335.142 202.159 331.229 198.238 326.397 198.238H323.935C324.027 197.538 324.027 197.078 324.027 197.078V194.224H343.924Z" fill="#D6D6D6"/>
<path d="M410.945 194.224V216.979L394.631 205.583V202.748L380.282 194.224H410.945Z" fill="#E5E5E5"/>
<path d="M410.945 162.78V194.224H380.282L372.382 179.257H387.318V172.096H371.28V177.177L364.5 164.364C367.697 164.106 370.876 163.59 373.539 162.78H410.945Z" fill="#BCBCBC"/>
<path d="M410.945 142.677V162.762H373.539C379.033 161.105 382.303 158.233 378.867 153.796H387.3V149.783H374.679C372.345 147.703 369.736 145.291 366.999 142.677H410.945Z" fill="#B2B2B2"/>
<path d="M351.934 123.53C353.753 126.2 355.021 128.851 355.829 131.447C359.503 135.35 363.361 139.197 367.017 142.695H410.945V123.53H351.934ZM387.318 135.57H371.28V131.557H387.318V135.57Z" fill="#BCBCBC"/>
<path d="M410.945 114.878V123.53H351.934C351.603 123.033 351.236 122.536 350.868 122.039C348.774 119.278 346.661 116.903 344.567 114.896H346.661H353.643H356.858H363.582H366.54H368.799H374.348L391.268 115.191V114.878H396.266L402.99 114.915L402.953 114.878H405.433V114.915H408.097V114.878H410.945Z" fill="#B7B7B7"/>
<path d="M410.945 34.4999L328.657 89.1773C322.741 81.0217 316.292 73.7866 316.292 73.7866L317.983 70.6201C318.975 70.2335 319.893 69.626 320.665 68.8528C323.513 65.9992 326.801 53.7935 324.872 48.6755C320.591 39.1208 306.923 35.9543 304.02 41.9007C301.117 47.8471 287.209 44.8647 278.648 45.6747C270.087 46.4847 272.126 58.1014 272.126 58.1014C269.517 59.4085 268.231 61.1758 266.137 61.6913V35.3283L410.945 34.4999Z" fill="#F4F4F4"/>
<path d="M408.097 114.878H405.433V114.915H408.097V114.878Z" fill="#CECECE"/>
<path d="M408.097 108.066V114.878H405.433V110.054V108.066H408.097Z" fill="#828282"/>
<path d="M405.433 108.066V110.036H403.835C403.835 110.036 403.835 108.618 403.835 108.066C403.817 107.532 405.433 108.066 405.433 108.066Z" fill="#A59C8B"/>
<path d="M405.194 98.8242L402.971 106.483L401.814 106.078L402.696 102.451V98.8242H405.194Z" fill="#828282"/>
<path d="M402.971 114.896L396.247 114.878H402.935L402.971 114.896Z" fill="#CECECE"/>
<path d="M402.935 114.878H396.247L397.46 113.644V107.679L395.88 103.169V101.328H400.436V105.838L401.924 109.668V113.865L402.935 114.878Z" fill="#B2B2B2"/>
<path d="M402.696 98.8242V102.451L400.436 101.328H395.88H392.683V98.8242H400.436H402.696Z" fill="#A59C8B"/>
<path d="M394.63 202.748V205.583H391.801V205.399L378.39 197.851C378.206 197.667 377.434 196.305 376.295 194.224H380.3L394.63 202.748Z" fill="#91C4DE"/>
<path d="M391.783 205.583V207.995H366.411V201.183L368.193 197.833C368.193 197.833 379.272 198.753 378.371 197.833L391.783 205.381V205.583Z" fill="#B6E4FB"/>
<path d="M391.232 114.878V115.172L374.311 114.878H391.232Z" fill="#CECECE"/>
<path d="M391.232 109.668V114.878H374.311L379.51 109.668H380.282H387.851H391.232Z" fill="#B2B2B2"/>
<path d="M389.597 68.4294L358.879 91.7549L356.986 89.8402L387.704 66.9935L389.597 68.4294Z" fill="#F4F4F4"/>
<path d="M387.851 106.483V109.686H380.282C380.282 109.686 378.959 106.483 380.282 106.483C381.054 106.483 383.442 106.483 385.334 106.483V106.851L387.851 106.483Z" fill="#828282"/>
<path d="M387.851 95.0319V106.483C387.851 106.483 386.731 106.483 385.334 106.483V95.0319H387.851Z" fill="#828282"/>
<path d="M387.851 106.483L385.334 106.851V106.483C386.731 106.483 387.851 106.483 387.851 106.483Z" fill="#828282"/>
<path d="M387.318 172.096V179.257H372.382H372.364L371.28 177.177V172.096H387.318Z" fill="#939393"/>
<path d="M387.318 149.801V153.815H378.886C378.353 153.115 377.655 152.397 376.773 151.624C376.112 151.053 375.432 150.446 374.715 149.801H387.318Z" fill="#939393"/>
<path d="M387.318 131.557H371.28V135.57H387.318V131.557Z" fill="#939393"/>
<path d="M385.334 95.0319V106.483C383.442 106.483 381.054 106.483 380.282 106.483L385.334 95.0319Z" fill="#A59C8B"/>
<path d="M378.371 197.833C378.188 197.649 377.416 196.286 376.277 194.206C371.96 186.327 362.443 168.101 360.587 164.548C358.052 164.603 355.645 164.511 353.643 164.271C352.044 164.087 349.987 163.885 347.617 163.664L366.007 194.206L368.193 197.833C368.193 197.833 379.272 198.753 378.371 197.833Z" fill="#F7A57C"/>
<path d="M380.282 194.224L372.382 179.257L371.28 177.177L364.5 164.364C363.178 164.474 361.873 164.548 360.587 164.566C362.443 168.119 371.96 186.327 376.277 194.224H380.282Z" fill="#EA9260"/>
<path d="M371.721 96.5967L368.763 98.0694H366.503L365.033 96.5967H371.721Z" fill="#828282"/>
<path d="M368.763 98.0694H366.503V114.859H368.763V98.0694Z" fill="#A59C8B"/>
<path d="M366.007 194.224H343.924V164.713C344.346 164.308 344.769 163.903 345.191 163.48C346.018 163.553 346.827 163.627 347.598 163.682L366.007 194.224Z" fill="#BCBCBC"/>
<path d="M365.033 96.5967H364.17V99.6343H365.033V96.5967Z" fill="#CECECE"/>
<path d="M364.17 111.674V112.853H363.563H356.839H356.27V111.674H364.17Z" fill="#B2B2B2"/>
<path d="M363.563 112.853H356.839V114.878H363.563V112.853Z" fill="#828282"/>
<path d="M356.839 105.231C357.354 105.231 353.624 108.453 353.624 108.453H346.643V105.231H356.839Z" fill="#828282"/>
<path d="M356.839 105.231H346.643V103.169H354.782L356.839 105.231Z" fill="#A59C8B"/>
<path d="M355.829 131.447C353.33 128.796 350.923 126.126 348.737 123.53H351.916C353.753 126.2 355.02 128.832 355.829 131.447Z" fill="#BCBCBC"/>
<path d="M353.624 108.453H346.643V114.878H353.624V108.453Z" fill="#B2B2B2"/>
<path d="M351.934 123.53H348.756C346.202 120.493 343.924 117.566 342.16 114.878H344.567C346.661 116.884 348.774 119.259 350.868 122.039C351.236 122.518 351.603 123.033 351.934 123.53Z" fill="#B7B7B7"/>
<path d="M328.657 89.1773C333.231 95.4735 337.512 102.304 338.284 106.74C338.486 107.937 339 109.318 339.772 110.846C340.396 112.098 341.205 113.442 342.142 114.878H344.548H346.643V103.169H354.763L356.821 105.231C357.335 105.231 353.606 108.453 353.606 108.453V114.878H356.821V112.853H356.251V111.674H364.151V112.853H363.545V114.878H366.503V98.0877L365.033 96.615V99.6526H364.17V96.615H365.033H371.721L368.763 98.0877V114.878H374.311L379.492 109.686H380.264C380.264 109.686 378.941 106.483 380.264 106.483L385.316 95.0317H387.833V109.668H391.213V114.878H396.211L397.441 113.663V107.679L395.861 103.169V101.328H392.665V98.8426H405.176L402.953 106.483L401.796 106.078L402.677 102.451L400.418 101.328V105.838L401.906 109.668V113.865L402.916 114.878H405.397V110.054H403.798C403.798 110.054 403.798 108.637 403.798 108.084C403.798 107.532 405.397 108.084 405.397 108.084H408.06V114.878H410.926V34.4999L328.657 89.1773ZM358.879 91.7547L356.986 89.8585L387.704 66.9934L389.615 68.4294L358.879 91.7547Z" fill="white"/>
<path d="M343.924 164.713V194.225H324.027V174.6C324.027 174.6 325.864 175.097 331.027 173.09C332.147 172.648 333.415 172.096 334.866 171.396C337.016 170.328 340.433 168.009 343.924 164.713Z" fill="#B2B2B2"/>
<path d="M378.867 153.815C378.335 153.115 377.636 152.397 376.755 151.624C376.093 151.053 375.413 150.446 374.697 149.801C372.364 147.721 369.755 145.309 367.017 142.695C363.361 139.197 359.503 135.35 355.829 131.447C353.33 128.796 350.924 126.126 348.737 123.53C346.184 120.493 343.905 117.566 342.142 114.878C341.205 113.46 340.396 112.098 339.772 110.846C339 109.318 338.486 107.937 338.284 106.741C337.512 102.285 333.231 95.4737 328.657 89.1775C322.741 81.0219 316.292 73.7867 316.292 73.7867H307.749C307.749 73.7867 303.285 89.3616 301.191 107.422C301.154 107.698 301.135 107.974 301.099 108.25C300.86 110.423 300.658 112.632 300.492 114.859C300.29 117.75 300.162 120.64 300.143 123.512C300.125 126.66 300.235 129.771 300.492 132.772C300.474 135.221 300.584 137.89 300.841 140.762C300.897 141.425 300.97 142.051 301.062 142.658C301.484 145.401 302.274 147.758 303.34 149.765C304.148 151.293 305.141 152.618 306.243 153.778C307.07 154.643 307.988 155.416 308.944 156.098C311.387 158.657 314.437 160.516 318.185 161.473C321.29 161.676 324.854 161.915 328.528 162.173C331.1 162.357 333.709 162.541 336.281 162.725H336.299C338.927 162.928 341.48 163.112 343.869 163.314C344.291 163.351 344.714 163.388 345.136 163.425C345.963 163.498 346.771 163.572 347.543 163.627C349.913 163.83 351.971 164.032 353.569 164.235C355.572 164.474 357.978 164.566 360.514 164.511C361.8 164.474 363.104 164.419 364.427 164.308C367.624 164.051 370.802 163.535 373.466 162.725C379.033 161.123 382.303 158.233 378.867 153.815Z" fill="#FFEEB0"/>
<path d="M335.124 206.983V208.437H303.744V206.983C303.744 202.141 307.657 198.219 312.489 198.219H314.676C314.896 200.631 315.76 203.926 318.956 203.926C322.686 203.926 323.659 200.171 323.917 198.219H326.379C331.21 198.219 335.124 202.141 335.124 206.983Z" fill="#8E8C83"/>
<path d="M317.983 70.6202C315.282 71.688 312.012 71.2646 309.513 68.7424C308.649 67.8771 308.08 66.7173 307.749 65.3918C306.776 61.4153 308.006 55.8739 310.321 51.9894C313.389 46.8162 324.872 48.6756 324.872 48.6756C326.801 53.7935 323.513 65.9993 320.665 68.8529C319.893 69.6445 318.975 70.2336 317.983 70.6202Z" fill="#F7A57C"/>
<path d="M324.027 194.224V197.078C324.027 197.078 324.027 197.557 323.935 198.238H314.694C314.565 196.839 314.676 195.734 314.676 195.734V194.224H324.027Z" fill="white"/>
<path d="M314.676 198.219H323.917C323.659 200.171 322.686 203.926 318.956 203.926C315.778 203.945 314.896 200.649 314.676 198.219Z" fill="white"/>
<path d="M276.48 194.224L323.163 226H291.362L284.748 221.287L283.333 217.955L269.076 213.684V207.019H270.822L268.819 194.224H276.48Z" fill="#E5E5E5"/>
<path d="M324.872 48.694C324.872 48.694 313.39 46.8162 310.322 52.0078C308.025 55.8923 306.776 61.4337 307.749 65.4102V67.0119C301.301 54.6404 294.632 56.6655 294.632 56.6655C294.632 54.4931 292.868 52.7442 290.719 52.7442C288.551 52.7442 286.805 54.4931 286.805 56.6655C286.805 58.8379 288.569 60.5868 290.719 60.5868C290.957 60.5868 291.215 60.5684 291.453 60.5132C290.719 62.9065 286.401 74.4311 274.074 64.2504C276.958 61.3048 280.265 58.7274 282.635 58.1015C282.635 58.1015 282.837 50.5718 285.758 50.3877C285.758 50.3877 285.758 47.5894 279.695 49.1911C273.633 50.7927 276.278 56.0211 272.126 58.1015C272.126 58.1015 270.087 46.5032 278.667 45.6932C287.228 44.8831 301.136 47.8839 304.038 41.9191C306.923 35.9543 320.591 39.1392 324.872 48.694Z" fill="#FFD47D"/>
<path d="M317.983 70.6202L316.292 73.7867H307.749V65.3918C308.08 66.7173 308.65 67.8771 309.513 68.7424C312.012 71.2646 315.282 71.688 317.983 70.6202Z" fill="#EA9260"/>
<path d="M317.927 174.839C316.053 174.765 314.657 174.581 314.657 174.581V179.239V194.206H324.009V174.581C322.061 174.931 319.765 174.931 317.927 174.839Z" fill="white"/>
<path d="M314.657 179.257V194.224H276.903V162.78H292.06C296.175 167.548 300.878 170.402 304.92 172.114H301.87V179.276H314.657V179.257Z" fill="#B2B2B2"/>
<path d="M314.657 174.599V179.257H301.889V172.096H304.938C310.395 174.397 314.657 174.599 314.657 174.599Z" fill="#939393"/>
<path d="M307.749 66.9935V73.7867C298.729 74.9465 288.349 94.8477 283.921 114.878H275.672V99.0451H274.073V96.5782L276.903 96.0443V94.3506L270.307 92.7858L267.349 89.8218L266.118 91.0552V72.6821C267.368 72.1298 268.525 71.283 269.315 70.0495C270.473 68.2453 272.181 66.1466 274.055 64.232C286.383 74.3943 290.7 62.8696 291.435 60.4948C293.254 60.1634 294.632 58.5617 294.632 56.6287C294.632 56.6471 301.301 54.622 307.749 66.9935Z" fill="#F4F4F4"/>
<path d="M318.24 161.51C312.103 161.105 307.749 160.847 307.749 160.847C307.749 160.847 304.314 160.019 299.941 157.883C294.485 155.195 287.559 150.464 284.031 142.695C283.553 141.664 283.149 140.578 282.819 139.437C282.047 136.804 281.643 133.858 281.771 130.6C281.863 128.299 282.065 125.942 282.378 123.53C282.745 120.677 283.259 117.786 283.902 114.878C288.33 94.8477 298.729 74.9466 307.731 73.7867C307.731 73.7867 303.267 89.3615 301.172 107.422C301.135 107.698 301.117 107.974 301.08 108.25C300.841 110.423 300.639 112.632 300.474 114.859C300.272 117.75 300.143 120.64 300.125 123.512C300.107 126.66 300.217 129.771 300.474 132.772C300.456 135.221 300.566 137.89 300.823 140.762C300.878 141.425 300.952 142.051 301.044 142.658C301.466 145.401 302.256 147.758 303.322 149.765C304.13 151.293 305.122 152.618 306.224 153.778C307.051 154.643 307.97 155.416 308.925 156.098C311.424 158.693 314.473 160.553 318.24 161.51Z" fill="#FFCED2"/>
<path d="M317.927 172.372C317.376 172.28 316.807 172.188 316.237 172.096C309.219 170.862 300.915 168.248 294.062 162.762C292.133 161.215 290.333 159.467 288.698 157.441L288.367 157.644C289.506 159.559 290.755 161.271 292.06 162.78C296.175 167.548 300.878 170.402 304.92 172.114C310.395 174.415 314.639 174.599 314.639 174.599C314.639 174.599 316.017 174.765 317.909 174.857C319.746 174.931 322.061 174.931 324.009 174.599C324.009 174.599 325.846 175.097 331.008 173.09C331.027 173.071 325.405 173.495 317.927 172.372Z" fill="#B79497"/>
<path d="M291.453 60.5131C291.215 60.55 290.976 60.5868 290.719 60.5868C288.551 60.5868 286.805 58.8378 286.805 56.6655C286.805 54.4931 288.569 52.7441 290.719 52.7441C292.886 52.7441 294.632 54.4931 294.632 56.6655C294.632 58.5801 293.272 60.1633 291.453 60.5131Z" fill="#99796A"/>
<path d="M292.06 162.78H276.903V142.677H283.057C283.351 145.088 283.939 147.592 284.858 150.151C285.85 152.949 287.044 155.435 288.367 157.644C289.506 159.559 290.755 161.271 292.06 162.78Z" fill="#BCBCBC"/>
<path d="M291.362 226H229.136L222.687 220.182H235.676L233.288 212.653V206.062H234.868V194.224H257.778L260.993 207.019H263.05V213.684H261.47V221.287H284.748L291.362 226Z" fill="#D6D6D6"/>
<path d="M283.333 217.955L284.748 221.287H261.47V213.684H263.05H269.076L283.333 217.955Z" fill="#F7E181"/>
<path d="M343.924 163.369C341.535 163.167 338.982 162.964 336.355 162.78H336.336C333.782 162.596 331.155 162.394 328.583 162.228C324.909 161.97 321.345 161.731 318.24 161.528C312.104 161.123 307.749 160.866 307.749 160.866C307.749 160.866 304.314 160.037 299.941 157.902C294.485 155.214 287.559 150.483 284.031 142.714C283.553 141.683 283.149 140.596 282.819 139.455C282.837 140.523 282.929 141.609 283.057 142.714C283.351 145.125 283.939 147.629 284.858 150.188C285.85 152.986 287.044 155.472 288.367 157.681L288.698 157.478C290.333 159.503 292.133 161.271 294.062 162.799C300.897 168.267 309.219 170.899 316.237 172.133C316.807 172.225 317.376 172.317 317.927 172.409C325.405 173.532 331.027 173.108 331.027 173.108C332.147 172.666 333.415 172.114 334.866 171.415C337.034 170.365 340.433 168.027 343.942 164.732C344.365 164.327 344.787 163.922 345.21 163.498C344.769 163.443 344.346 163.406 343.924 163.369ZM324.743 162.78H310.119H324.743Z" fill="#E6B2B6"/>
<path d="M283.921 114.878C283.278 117.768 282.763 120.677 282.396 123.53H263.069V115.191L265.328 114.97L267.074 114.896H283.921V114.878Z" fill="#B7B7B7"/>
<path d="M283.057 142.677H276.903V123.53H282.396C282.084 125.942 281.882 128.299 281.79 130.6C281.661 133.858 282.047 136.804 282.837 139.436C282.855 140.504 282.929 141.59 283.057 142.677Z" fill="#B2B2B2"/>
<path d="M276.48 194.224H268.819L261.489 147.113C270.27 145.898 264.722 138.258 264.722 138.258C262.83 136.178 260.974 130.324 259.284 123.53H263.05H276.884V142.677V162.762V194.224H276.48Z" fill="#CECECE"/>
<path d="M276.903 94.369V96.0628L274.055 96.5782L270.307 92.8042L276.903 94.369Z" fill="#BFAD86"/>
<path d="M275.672 99.045V114.878H268.635V99.045H270.307H274.055H275.672Z" fill="#C1BBB0"/>
<path d="M274.073 96.5782H270.307V99.0451H274.073V96.5782Z" fill="#C9B897"/>
<path d="M270.307 92.8042L274.055 96.5782H270.307V95.2159V92.8042Z" fill="#BFAD86"/>
<path d="M270.307 96.5782V99.0452H268.635V114.878H267.074V105.378H266.118V96.5782H266.467H270.307Z" fill="#F4F4F4"/>
<path d="M270.307 95.2159H266.467V96.5783H270.307V95.2159Z" fill="#BFAD86"/>
<path d="M270.307 92.8042V95.2159L266.118 91.313V91.0737L267.349 89.8402L270.307 92.8042Z" fill="#BFAD86"/>
<path d="M270.307 95.2159H266.467V96.5782H266.118V91.313L270.307 95.2159Z" fill="#F4F4F4"/>
<path d="M269.076 207.019H263.05V213.684H269.076V207.019Z" fill="#F7A57C"/>
<path d="M268.819 194.224L261.489 147.113C261.084 147.169 260.644 147.206 260.166 147.242C256.4 147.463 251.292 147.905 246.111 147.96L257.778 194.224L260.993 207.019H263.05H269.076H270.822L268.819 194.224Z" fill="#F4ABB1"/>
<path d="M267.074 105.378H266.118V114.878H267.074V105.378Z" fill="#C1BBB0"/>
<path d="M267.074 114.878L265.328 114.951L266.118 114.878H267.074Z" fill="#B7B7B7"/>
<path d="M266.118 105.378V114.878L265.328 114.951L263.05 115.043V105.378H264.3H266.118Z" fill="#C1BBB0"/>
<path d="M266.118 96.5782V105.378H264.3V101.236H263.05V73.5658C264.061 73.4001 265.108 73.1424 266.118 72.7006V91.0737L265.99 91.2025L266.118 91.313V96.5782Z" fill="#CECECE"/>
<path d="M266.118 91.0736V91.3121L265.99 91.202L266.118 91.0736Z" fill="#CECECE"/>
<path d="M261.103 24.6322V35.3652L263.069 35.3468V61.5809C264.318 61.8938 265.292 61.8938 266.137 61.6913V35.3284L410.963 34.4999V24.6322H261.103Z" fill="#CECECE"/>
<path d="M265.328 114.951L263.05 115.172V115.043L265.328 114.951Z" fill="#B7B7B7"/>
<path d="M264.3 101.236H263.05V105.378H264.3V101.236Z" fill="#939393"/>
<path d="M263.05 115.172V123.53L259.192 123.144C258.549 120.566 257.943 117.86 257.355 115.191H260.313H263.05V115.172Z" fill="#B7B7B7"/>
<path d="M263.05 115.043V115.172H260.331L263.05 115.043Z" fill="#B7B7B7"/>
<path d="M263.05 105.378V115.043L260.331 115.172V105.378H263.05Z" fill="#C1BBB0"/>
<path d="M263.069 101.236H260.331V105.378H263.069V101.236Z" fill="#939393"/>
<path d="M263.05 73.5658V101.236H260.331V105.378V115.172H257.373C255.554 106.906 254.011 98.9163 252.909 95.805C250.484 88.9565 251.843 81.6478 255.187 75.4068C255.628 74.5599 256.014 73.7131 256.326 72.8294L258.476 73.6947C258.457 73.6947 260.588 73.9524 263.05 73.5658Z" fill="#E5E5E5"/>
<path d="M263.05 123.53H259.284C259.247 123.401 259.229 123.273 259.192 123.144L263.05 123.53Z" fill="#B7B7B7"/>
<path d="M246.111 147.942L257.759 194.206H234.849V147.132C238.34 147.813 242.253 147.997 246.111 147.942Z" fill="#CECECE"/>
<path d="M222.687 220.182L229.136 226H185.87L157.154 194.224H190.499C189.011 196.36 187.927 198.367 188.129 200.152C188.717 205.381 194.651 205.16 194.651 205.16L194.541 203.724C188.074 202.306 190.058 198.79 193.218 194.224H224.34C225.222 201.404 225.829 206.062 225.829 206.062H227.262V212.653L222.687 220.182Z" fill="#E5E5E5"/>
<path d="M224.359 194.224H193.237C195.423 191.058 198.216 187.413 199.171 183.62C201.541 174.342 196.084 169.942 187.413 157.092C178.741 144.242 185.153 136.141 187.854 131.98C189.268 129.808 190.334 126.347 191.05 123.53H216.9C216.918 124.009 216.937 124.506 216.973 125.003C217.782 139.989 222.044 175.575 224.359 194.224Z" fill="#CECECE"/>
<path d="M224.653 84.5933C224.359 86.8762 224.047 89.6929 223.771 92.8226C223.771 92.8226 218.333 100.647 217.12 115.191H211.223V100.389L211.811 96.7807L213.887 98.8795H217.084L212.876 94.6636H206.832H197.738V96.9648H200.604L204.021 100.389V115.191H192.704V110.883L194.321 110.68V94.3874C194.321 94.3874 201.798 89.5088 209.882 86.2871C217.892 83.1021 219.564 73.0687 219.582 72.9214L220.556 73.2896C220.537 73.2712 224.377 75.8855 224.653 84.5933Z" fill="#E5E5E5"/>
<path d="M250.465 63.5508C250.465 63.5508 250.465 71.5407 250.465 72.4428C250.465 73.3449 233.288 72.4428 233.288 72.4428V63.5508H250.465Z" fill="#FFEFA1"/>
<path d="M239.116 37.537C234.405 39.2244 229.131 35.7643 229 35.6621C231.083 31.8099 233.167 26.8158 232.397 23.3898C232.003 21.6001 231.947 19.7593 232.397 17.9866C233.373 14.1004 236.132 9.10626 243.865 11.7312C243.865 11.7312 248.669 23.5773 243.865 32.986C242.551 35.5257 240.88 36.8893 239.116 37.537Z" fill="#F7A57C"/>
<path d="M243.945 43.7699C244.482 49.6892 241.071 50.0748 234.472 49.991C226.741 49.8736 227.001 45.5138 227.001 45.5138V43.7867V38.8232C227.631 37.8339 228.447 36.4924 229.263 35C229.392 35.0838 234.62 38.5046 239.255 36.8445V43.7867H243.945V43.7699Z" fill="#EA9260"/>
<path d="M233.288 212.653L235.676 220.182H222.687L227.28 212.653H233.288Z" fill="#FFEFA1"/>
<path d="M233.306 206.062H227.28V212.653H233.306V206.062Z" fill="#F7A57C"/>
<path d="M222.448 60.9182C222.375 60.9182 220.537 73.2713 220.537 73.2713L219.564 72.9031L208.596 68.7424L206.869 68.0981C206.115 60.7893 218.939 42.4899 218.939 42.4899C230.844 64.8211 227.225 72.811 225.553 79.2177C225.553 79.2177 222.448 61.4153 222.448 60.9182C222.448 60.9182 222.448 60.9366 222.448 60.9182Z" fill="#B6E4FB"/>
<path d="M225.553 79.2176C225.296 80.1934 224.984 82.0712 224.671 84.5934C224.396 75.8855 220.556 73.2896 220.556 73.2896C220.556 73.2896 222.393 60.9366 222.467 60.9366C222.467 60.9366 222.467 60.9366 222.467 60.955C222.448 61.4152 225.553 79.2176 225.553 79.2176Z" fill="#91C4DE"/>
<path d="M223.771 92.8042C223.165 99.4134 222.614 107.477 222.375 115.172H217.12C218.351 100.647 223.771 92.8042 223.771 92.8042Z" fill="#B6E4FB"/>
<path d="M224.175 140.541C222.852 137.522 222.32 131.115 222.264 123.512C222.264 122.168 222.264 120.787 222.283 119.388C222.301 117.989 222.338 116.59 222.375 115.154H217.12C217.028 116.332 216.955 117.565 216.918 118.836C216.863 120.327 216.863 121.873 216.918 123.493C216.937 123.972 216.955 124.469 216.973 124.966C217.782 139.97 222.044 175.557 224.359 194.188C225.241 201.368 225.847 206.025 225.847 206.025H227.28H233.306H234.886V194.224V147.15C229.87 146.193 225.81 144.26 224.175 140.541Z" fill="#F4ABB1"/>
<path d="M208.596 68.7608L219.564 72.9214C219.545 73.0871 217.874 83.1021 209.863 86.2871C201.78 89.5088 194.302 94.3874 194.302 94.3874L193.714 91.1657C193.714 91.1657 187.064 91.6443 188.736 88.6619C189.029 88.128 189.434 87.723 189.893 87.4285L189.985 87.3732C192.042 86.1214 195.147 86.9866 195.147 86.9866L198.491 83.636L198.822 80.2118C198.822 80.2118 207.126 78.9047 208.081 74.9834C209.037 71.0436 208.596 68.7608 208.596 68.7608Z" fill="#F7A57C"/>
<path d="M221.241 10.3781C221.131 10.3948 220.196 10.5113 219.022 10.911C216.748 11.7102 213.649 13.6251 214.144 18.1044C214.218 18.7871 214.383 19.5364 214.658 20.3523C214.658 20.3523 209.89 36.0046 226.028 41C226.028 41 226.523 40.3173 227.238 39.2016C227.862 38.2192 228.669 36.9038 229.476 35.4051C231.511 31.6419 233.547 26.7631 232.795 23.4161C232.41 21.6678 232.355 19.8694 232.795 18.1377C233.749 14.3411 236.444 9.46229 244 12.0266C243.982 12.01 231.199 1.91922 221.241 10.3781Z" fill="#301A00"/>
<path d="M279.677 49.1726C273.614 50.7743 276.26 56.0027 272.108 58.1014C269.499 59.4085 268.213 61.1759 266.118 61.6914C265.273 61.8939 264.3 61.8939 263.05 61.5809C262.462 61.4336 261.819 61.2127 261.084 60.9182L258.457 73.6946C258.457 73.6946 260.588 73.9524 263.05 73.5658C264.061 73.4001 265.108 73.1423 266.118 72.7005C267.368 72.1482 268.525 71.3013 269.315 70.0679C270.473 68.2637 272.181 66.165 274.055 64.2503C276.94 61.3048 280.246 58.7274 282.616 58.1014C282.616 58.1014 282.819 50.5718 285.74 50.3877C285.74 50.3877 285.74 47.5894 279.677 49.1726Z" fill="#EA9260"/>
<path d="M247.416 42.4899L261.103 60.9182L258.476 73.6947L256.326 72.8294C258.329 67.2696 257.557 61.5073 254.268 59.2613C250.465 56.6839 247.416 42.4899 247.416 42.4899Z" fill="#B6E4FB"/>
<path d="M264.74 138.258C262.848 136.178 260.993 130.324 259.302 123.512C259.266 123.383 259.247 123.254 259.211 123.125C258.567 120.548 257.961 117.842 257.373 115.172C255.554 106.906 254.011 98.9163 252.909 95.8051C250.484 88.9566 251.843 81.6478 255.187 75.4068C255.646 74.56 256.014 73.7131 256.326 72.8479C258.347 67.2881 257.557 61.5257 254.268 59.2797C250.465 56.6839 247.434 42.4899 247.434 42.4899H246.056C246.056 57.8253 241.812 55.7818 234.372 55.7818C226.931 55.7818 224.506 42.4899 224.506 42.4899H218.957C230.863 64.8211 227.243 72.811 225.571 79.2177C225.314 80.1934 225.002 82.0712 224.69 84.5934C224.396 86.8762 224.083 89.693 223.808 92.8226C223.183 99.4318 222.65 107.495 222.411 115.191C222.375 116.627 222.338 118.026 222.32 119.425C222.301 120.824 222.301 122.205 222.301 123.549C222.356 131.152 222.889 137.559 224.212 140.578C225.829 144.297 229.907 146.23 234.904 147.187C238.377 147.85 242.29 148.034 246.148 147.997C251.347 147.942 256.436 147.5 260.203 147.279C260.68 147.242 261.121 147.206 261.525 147.15C270.27 145.898 264.74 138.258 264.74 138.258ZM233.288 63.5508H250.465C250.465 63.5508 250.465 71.5408 250.465 72.4428C250.465 73.3449 233.288 72.4428 233.288 72.4428V63.5508Z" fill="#FFEEB0"/>
<path d="M243.943 42.4899H246.038C246.038 57.8253 241.794 55.7634 234.353 55.7634C226.913 55.7634 224.487 42.4899 224.487 42.4899H227.151V44.3861C227.151 44.3861 226.894 49.1911 234.555 49.3015C241.096 49.412 244.476 48.9886 243.943 42.4899Z" fill="#B6E4FB"/>
<path d="M214 10.0863L210.99 16.7177C210.99 16.7177 211.919 43.2767 206.439 53.1396C200.94 63.0024 186.06 55.7652 192.655 49.7902C199.231 43.8153 196.575 8.01612 214 10.0863Z" fill="#301A00"/>
<path d="M214.007 10L219 10.5517C216.698 11.3793 213.561 13.3621 214.063 18L211 16.7931L214.007 10Z" fill="#FFCC3B"/>
<path d="M211.223 115.172H217.12C217.01 116.35 216.955 117.584 216.918 118.854L192.704 116.406V115.172H204.021H211.223Z" fill="#B7B7B7"/>
<path d="M212.876 94.6268L217.084 98.8427H213.887L211.811 96.7623L211.223 100.371H204.021L200.604 96.9464H197.738V94.6268H206.832H212.876Z" fill="#CECECE"/>
<path d="M216.918 123.53H191.069C191.73 120.935 192.079 118.891 192.079 118.891H192.704V116.424L216.918 118.873C216.863 120.345 216.863 121.91 216.918 123.53Z" fill="#B7B7B7"/>
<path d="M211.223 100.371H204.021V115.172H211.223V100.371Z" fill="#AFA68B"/>
<path d="M197.389 181.595C197.775 185.59 193.365 190.101 190.499 194.224H157.154V174.747V123.53H188.754C187.872 125.868 186.366 128.685 183.15 134.116C177.804 143.155 181.956 152.563 181.956 152.563C200.236 177.195 196.801 175.52 197.389 181.595Z" fill="#CECECE"/>
<path d="M194.302 94.369V110.662L187.505 98.4376C188.735 97.738 189.268 96.4309 188.368 94.8292C187.321 92.9882 186.402 90.0611 185.19 90.2452L189.893 87.41C189.434 87.7046 189.029 88.0912 188.736 88.6435C187.082 91.6259 193.714 91.1473 193.714 91.1473L194.302 94.369Z" fill="#818786"/>
<path d="M189.434 111.269L188.46 111.38L187.505 98.456L194.302 110.68L192.685 110.864L189.434 111.269Z" fill="#6A6B6B"/>
<path d="M189.434 111.269V115.172V116.093V118.891H189.948H192.061H192.686V116.406V115.172V110.864L189.434 111.269Z" fill="#565E5D"/>
<path d="M193.237 194.224C195.423 191.076 198.215 187.413 199.171 183.62C201.541 174.342 196.084 169.942 187.413 157.092C178.741 144.241 185.153 136.141 187.854 131.98C189.268 129.808 190.334 126.347 191.05 123.53C191.712 120.934 192.042 118.891 192.042 118.891H189.911C189.599 120.64 189.305 121.984 188.717 123.53C187.835 125.868 186.329 128.685 183.114 134.116C177.767 143.155 181.92 152.563 181.92 152.563C200.2 177.195 196.764 175.52 197.352 181.595C197.738 185.59 193.347 190.101 190.462 194.224C188.974 196.36 187.89 198.367 188.093 200.152C188.68 205.381 194.615 205.16 194.615 205.16L194.504 203.724C188.093 202.306 190.058 198.79 193.237 194.224Z" fill="#28423F"/>
<path d="M189.434 111.269V115.172H180.413V110.864V106.961H178.337V93.9272L184.528 90.6686C184.29 90.9264 184.014 91.313 183.738 91.8837C183.738 91.8837 182.195 98.8979 184.933 99.0267C185.925 99.0636 186.825 98.8611 187.523 98.4745L188.478 111.398L189.434 111.269Z" fill="#E5E5E5"/>
<path d="M187.505 98.456C186.806 98.8426 185.906 99.0635 184.914 99.0083C182.177 98.8978 183.72 91.8653 183.72 91.8653C183.996 91.313 184.253 90.9079 184.51 90.6502L185.153 90.2636C186.366 90.0795 187.284 93.0067 188.331 94.8477C189.268 96.4493 188.736 97.7564 187.505 98.456Z" fill="#EA9260"/>
<path d="M185.19 90.2636L184.547 90.6502C184.749 90.4293 184.969 90.3004 185.19 90.2636Z" fill="#E5E5E5"/>
<path d="M180.413 110.864H178.337V115.172H180.413V110.864Z" fill="#939393"/>
<path d="M180.413 106.961H178.337V110.883H180.413V106.961Z" fill="#B2B2B2"/>
<path d="M178.337 110.864V115.172H157.154V114.878V110.864H159.689H178.337Z" fill="#939393"/>
<path d="M178.337 106.961V110.864H159.689L163.603 106.961H178.337Z" fill="#B2B2B2"/>
<path d="M178.337 93.9271V106.961H163.603L159.689 110.883H157.136V114.878H153.222V121.597H87.561V61.765C87.561 61.6177 87.6712 59.8504 88.5714 58.1014C89.784 55.7265 91.8784 54.5299 94.7628 54.5299C101.56 54.5299 101.946 61.3416 101.965 61.765V66.7725C95.4793 67.1959 90.3535 72.6084 90.3535 79.2176V85.6058H98.5107C98.4923 85.6979 98.4739 85.7899 98.4739 85.9004C98.4739 86.5447 98.9883 87.0602 99.6313 87.0602H106.282C106.613 87.0602 106.888 86.9314 107.109 86.7104C107.329 86.5079 107.458 86.2134 107.458 85.882C107.458 85.7899 107.439 85.6795 107.421 85.5874H115.248V79.1992C115.248 75.7565 113.851 72.6453 111.61 70.3808C109.571 68.3373 106.852 67.0118 103.802 66.7725V61.7466V61.7098C103.802 61.6177 103.728 59.4453 102.589 57.2546C101.524 55.1742 99.2823 52.6889 94.7628 52.6889C90.2433 52.6889 88.0019 55.1742 86.9363 57.2546C85.7972 59.4453 85.7237 61.6361 85.7237 61.7098V61.7282V121.597H0V58.083V3.81055C7.07322 2.15365 16.4797 1.52772 27.4845 1.47249V16.2004H23.0752C21.3666 16.2004 19.805 16.9 18.6843 18.023C17.5636 19.146 16.8655 20.7109 16.8655 22.423H22.9099C22.9099 23.6564 25.4452 24.6506 28.5685 24.6506C31.6917 24.6506 34.227 23.6564 34.227 22.423H39.9775C39.9775 18.9803 37.1849 16.2004 33.7677 16.2004H29.0829V1.47249C53.6095 1.4909 85.6319 4.17875 117.121 4.54695V16.2004H112.712C111.004 16.2004 109.442 16.9 108.321 18.023C107.201 19.146 106.502 20.7109 106.502 22.423H112.547C112.547 23.6564 115.082 24.6506 118.205 24.6506C121.329 24.6506 123.864 23.6564 123.864 22.423H129.614C129.614 18.9803 126.822 16.2004 123.405 16.2004H118.72V4.56535C139.719 4.74945 160.406 3.86577 178.41 0.441528V81.7398C172.623 86.0661 167.534 90.2636 167.534 90.2636L165.513 91.7548L157.209 92.1782L164.723 102.874L166.928 106.022L170.125 98.7505L171.907 97.333L178.337 93.9271Z" fill="#F4F4F4"/>
<path d="M193.476 72.4796C190.775 72.8478 184.198 77.3399 178.337 81.7398C172.55 86.0662 167.461 90.2636 167.461 90.2636L171.852 97.3514L178.319 93.9272L184.51 90.6686C184.73 90.4293 184.951 90.3004 185.171 90.282L189.875 87.4469L189.966 87.3917C192.024 86.1398 195.129 87.0051 195.129 87.0051L198.473 83.6545L198.803 80.2302C198.822 80.2118 198.822 71.7616 193.476 72.4796Z" fill="#4C4C4C"/>
<path d="M167.461 90.2636L171.87 97.3515L170.07 98.769L167.736 95.2159L165.458 91.7548L167.461 90.2636Z" fill="#1C1C1C"/>
<path d="M167.736 95.2159L170.07 98.7691L166.873 106.023L164.668 102.874L167.736 95.2159Z" fill="#4C4C4C"/>
<path d="M165.458 91.7549L167.736 95.2159L164.668 102.874L157.154 92.1783L165.458 91.7549Z" fill="#777777"/>
<path d="M189.434 118.891V116.093V115.172H180.413H178.337H157.154V114.878H153.223V121.616V123.53H157.136H188.736C189.305 121.984 189.617 120.64 189.93 118.891H189.434Z" fill="#B7B7B7"/>
<path d="M147.748 216.979L156.585 226H133.491L125.426 215.838H138.525C138.745 216.556 138.856 216.979 138.856 216.979H147.748Z" fill="#D6D6D6"/>
<path d="M156.768 174.728C156.768 174.728 144.092 174.158 143.393 182.111H134.079C135.126 177.471 136.504 173.992 137.845 171.433C140.197 166.941 142.42 165.321 142.42 165.321C142.42 165.321 153.498 158.086 156.309 159.209C156.309 159.209 143.449 171.82 143.54 174.544C143.522 174.544 152.359 170.697 156.768 174.728Z" fill="#FFE180"/>
<path d="M150.834 203.834C152.139 206.265 147.766 216.961 147.766 216.961H138.874C138.874 216.961 138.764 216.556 138.543 215.819C138.102 214.402 137.257 211.751 135.971 208.529C134.024 203.669 138.562 199.932 138.562 199.932H147.619C147.601 199.95 149.53 201.404 150.834 203.834Z" fill="#FFEEB0"/>
<path d="M141.74 157.699C141.74 157.699 149.162 151.2 149.916 151.293C149.916 151.293 142.31 163.241 142.401 165.303C142.401 165.303 140.178 166.923 137.827 171.415C137.312 169.758 141.74 157.699 141.74 157.699Z" fill="#FFC522"/>
<path d="M154.802 136.16C154.802 136.16 141.097 152.434 141.758 157.699C141.758 157.699 137.312 169.739 137.845 171.433C136.504 173.992 135.126 177.471 134.079 182.111H133.105L130.662 177.269V171.433C130.662 171.433 130.662 171.415 130.643 171.415C130.423 171.12 130.423 169.224 130.515 166.702C131.231 162.394 138.176 150.059 138.176 150.059C138.176 150.059 151.514 136.528 154.802 136.16Z" fill="#EECD55"/>
<path d="M134.079 182.111H143.393C143.393 182.111 153.902 187.137 147.601 199.95C147.601 199.95 147.196 194.022 142.971 194.022C138.745 194.022 138.543 199.95 138.543 199.95C138.543 199.95 134.005 203.669 135.953 208.547C137.239 211.769 138.102 214.42 138.525 215.838H125.426L119.914 198.624C118.628 194.574 118.812 190.174 120.594 186.327C121.659 184.025 123.221 182.111 125.426 182.111H126.161H133.105H134.079Z" fill="#8E8C83"/>
<path d="M147.601 199.95H138.525C138.525 199.95 138.727 194.022 142.952 194.022C147.196 194.022 147.601 199.95 147.601 199.95Z" fill="#FFC522"/>
<path d="M142.034 127.231L138.176 150.096C138.176 150.096 131.25 162.412 130.515 166.738C130.735 160.995 131.507 152.084 131.507 152.084C131.507 152.084 135.916 130.986 142.034 127.231Z" fill="#FFC522"/>
<path d="M121.274 164.014C121.218 163.848 117.011 153.354 112.161 149.893C112.161 149.893 121.071 151.863 126.142 159.025C127.263 160.461 127.557 167.972 127.557 167.972L130.643 171.433L130.662 171.451V177.287L133.105 182.129H126.161C126.161 182.129 119.308 171.635 111.794 170.881C111.794 170.881 118.187 169.003 122.413 171.728C122.413 171.728 116.772 164.014 111.242 161.749C111.224 161.749 119.216 162.504 121.274 164.014Z" fill="#FFE180"/>
<path d="M130.533 166.72C130.441 169.224 130.441 171.139 130.662 171.433L127.575 167.972C127.575 167.972 127.3 160.461 126.161 159.025C126.069 158.712 119.767 138.608 117.066 136.27C117.25 136.399 129.376 144.794 131.525 152.084C131.507 152.066 130.754 160.976 130.533 166.72Z" fill="#EECD55"/>
<path d="M115.266 79.1993V85.5875H107.439C107.311 85.0905 106.852 84.7038 106.319 84.7038H102.828V66.9751H103.82V66.7542C106.852 66.9935 109.589 68.3374 111.628 70.3625C113.87 72.6453 115.266 75.7566 115.266 79.1993Z" fill="#939393"/>
<path d="M100.789 212.413L113.631 226H82.1412L72.6245 212.413H100.789Z" fill="#D6D6D6"/>
<path d="M107.439 85.5875C107.458 85.6796 107.476 85.7716 107.476 85.8821C107.476 86.2135 107.348 86.4896 107.127 86.7105C106.925 86.9314 106.631 87.0603 106.3 87.0603H99.6497C99.0067 87.0603 98.4923 86.5448 98.4923 85.9005C98.4923 85.8084 98.5107 85.698 98.529 85.6059H102.81H107.439V85.5875Z" fill="#FFBD1A"/>
<path d="M107.439 85.5875H102.81V84.7038H106.3C106.852 84.7222 107.311 85.0904 107.439 85.5875Z" fill="#939393"/>
<path d="M103.802 66.7725V66.9935H102.81V66.7357C103.14 66.7357 103.471 66.7541 103.802 66.7725Z" fill="#4C4C4C"/>
<path d="M103.802 61.7466V66.7725C103.471 66.7357 103.14 66.7357 102.81 66.7357C102.534 66.7357 102.259 66.7357 101.965 66.7725V61.765C101.946 61.3416 101.56 54.5299 94.7628 54.5299C91.8784 54.5299 89.784 55.7266 88.5714 58.1014C87.6712 59.8504 87.5609 61.6177 87.5609 61.765V121.597H85.7237V61.7466V61.7282C85.7237 61.6362 85.8156 59.4638 86.9363 57.273C88.0019 55.1927 90.2433 52.7073 94.7628 52.7073C99.2823 52.7073 101.524 55.1927 102.589 57.273C103.71 59.4638 103.802 61.6362 103.802 61.7282V61.7466Z" fill="#4C4C4C"/>
<path d="M102.81 84.7222V85.6059H98.529C98.5841 85.4034 98.6944 85.2193 98.8413 85.072C99.0434 84.8511 99.3374 84.7222 99.6681 84.7222H102.81Z" fill="#B2B2B2"/>
<path d="M102.81 66.9934V84.7222H99.6497C99.319 84.7222 99.0434 84.8511 98.823 85.072C98.676 85.2193 98.5658 85.4034 98.5107 85.6059H90.3535V79.2176C90.3535 72.6085 95.4793 67.196 101.965 66.7725V66.9934H102.81Z" fill="#B2B2B2"/>
<path d="M102.81 66.7357V66.9935H101.965V66.7725C102.24 66.7357 102.534 66.7357 102.81 66.7357Z" fill="#4C4C4C"/>
<path d="M100.789 212.413H72.6245C72.6245 211.18 73.1205 210.057 73.9289 209.247C74.7373 208.437 75.858 207.94 77.0889 207.94H85.7054V208.455H87.5426V207.94H96.2876C98.7862 207.921 100.789 209.928 100.789 212.413Z" fill="#818786"/>
<path d="M87.5609 207.922H85.7237V208.437H87.5609V207.922Z" fill="#4C4C4C"/>
<path d="M87.5609 121.597H85.7237V207.921H87.5609V121.597Z" fill="#4C4C4C"/>
<path d="M40.1979 187.321C40.8042 183.399 41.7779 177.674 42.3658 176.238C43.2844 174.01 47.9693 176.496 46.0035 167.107C45.2502 163.462 45.5626 161.197 46.4812 159.798C47.9326 157.57 50.8721 157.497 53.4258 157.589C57.5962 157.718 57.0818 153.944 56.2918 149.507C55.5202 145.07 64.7613 143.247 69.0604 146.377C73.3594 149.507 65.0185 153.557 62.4281 156.024C59.8192 158.509 63.3467 159.025 64.6511 162.688C65.9555 166.352 58.276 169.077 54.7118 171.949C51.1477 174.82 54.2342 176.901 55.41 178.742C56.5858 180.564 50.3393 190.543 50.3393 190.543H39.7386C39.8121 189.861 39.9775 188.702 40.1979 187.321Z" fill="#FFE180"/>
<path d="M48.6123 213.555L58.8639 226H42.2005L33.584 213.555H48.6123Z" fill="#D6D6D6"/>
<path d="M39.7019 190.524H50.3025H54.6751L51.9009 193.304V193.635H29.781L26.6761 190.524H32.5552H39.7019Z" fill="#7B796C"/>
<path d="M52.25 193.635C52.25 193.635 52.7828 210.849 48.6123 211.254C48.5572 211.254 48.5204 211.254 48.4653 211.254C44.1295 211.254 33.584 211.254 33.584 211.254C33.584 211.254 29.7994 214.236 29.7994 193.635H51.9193H52.25Z" fill="#8E8C83"/>
<path d="M48.6123 211.272V213.573H33.584V211.272C33.584 211.272 44.1296 211.272 48.4654 211.272C48.5021 211.272 48.5572 211.254 48.6123 211.272Z" fill="#7B796C"/>
<path d="M38.4526 148.439C41.9616 149.617 49.733 149.691 46.4812 159.78C45.5626 161.179 45.2502 163.462 46.0035 167.088C47.9509 176.477 43.2661 174.01 42.3658 176.22C41.7779 177.637 40.8226 183.381 40.1979 187.302C40.1061 187.1 33.3819 172.814 35.458 170.605C35.6968 170.365 35.9173 170.108 36.1561 169.868C37.9565 167.935 39.3344 166.131 37.6442 163.83C35.7335 161.216 25.9596 156.006 28.2378 153.723C30.5159 151.44 33.8963 150.004 32.4633 147.003C31.0303 144.002 24.7838 140.486 25.041 138.001C25.2982 135.515 37.9382 134.227 38.8384 138.645C39.757 143.1 34.9252 147.279 38.4526 148.439Z" fill="#EECD55"/>
<path d="M40.1979 187.321C39.9775 188.701 39.8121 189.861 39.7203 190.524H32.5735C31.3977 188.812 28.3664 183.878 30.3873 181.209C32.8675 177.95 26.0882 175.336 22.175 174.158C18.2618 172.979 15.0099 170.365 18.6659 167.364C22.3036 164.364 16.7185 161.62 15.2855 160.866C13.8525 160.111 4.48276 156.024 13.5953 153.152C22.7078 150.28 23.2222 152.36 23.4978 156.926C23.755 161.492 23.3692 161.492 30.4057 162.154C37.3135 162.799 36.2112 169.666 36.1745 169.905C35.954 170.144 35.7152 170.384 35.4763 170.641C33.3819 172.832 40.1061 187.118 40.1979 187.321Z" fill="#FFE180"/>
</svg>
