<svg width="413" height="270" viewBox="0 0 413 270" fill="none" xmlns="http://www.w3.org/2000/svg">
<path d="M237 178H0V269H237V178Z" fill="#E5E5E5"/>
<path d="M142 218H93V238H142V218Z" fill="#B4B3B4"/>
<path d="M142 202.3H93V218H142V202.3Z" fill="#C7C7C7"/>
<path d="M142 169.3H93V186.3H142V169.3Z" fill="#C7C7C7"/>
<path d="M413 237.9V270H388.5L380.4 261.9V258.7L375.3 257.1L364.5 246.8V237.9H413Z" fill="#E5E5E5"/>
<path d="M368.8 201V237.9H413V201H368.8ZM404.4 223.8H378.2V213.8H404.4V223.8Z" fill="#BCBCBC"/>
<path d="M368.8 169V174.6C371.1 174.8 373.2 175.7 373.2 178.1C373.2 183.5 369.6 182.5 369.6 182.5H368.9V201H413V169H368.8ZM395.3 188H383.8V178.6H395.3V188Z" fill="#B2B2B2"/>
<path d="M413 163.8V169H350.5C348.8 167.4 347.1 165.7 345.6 163.8H413Z" fill="#CECECE"/>
<path d="M413 158.5V163.7H345.6C344.2 162 342.9 160.3 341.8 158.5H368.8V160.4L369.8 158.5H413Z" fill="#939393"/>
<path d="M413 77.2001V158.5H407.4V133.4H406.3V128H402.7L404.4 124.7L401.2 123.4L399 127.9L391.2 143.8L394 145.3L398.3 136.7V158.6H393.4C393.4 158.6 393.4 152.2 393.4 149.4C393.4 148.2 386.5 148.1 378.8 148.3C378.8 146.7 378.8 143.9 378.8 141.6L413 77.2001Z" fill="white"/>
<path d="M368.8 77.2001H362.6H313.3H307H275.4C275.8 76.2001 276.1 75.5001 276 75.4001C277.1 73.9001 278.2 72.3001 279.2 70.6001H310.6H332.2H413V77.3001H368.8V77.2001Z" fill="#CECECE"/>
<path d="M413 77.2001L378.9 141.4C378.9 139.8 378.9 138.5 378.9 138C378.9 136.6 368.8 138 368.8 138V77.2001H413Z" fill="#F4F4F4"/>
<path d="M404.4 213.8H386.1V223.8H404.4V213.8Z" fill="#939393"/>
<path d="M404.4 124.7L402.7 128H399.4L399 127.8L401.2 123.3L404.4 124.7Z" fill="#F4F4F4"/>
<path d="M402.7 128H399.4V133.4H400H406.3V128H402.7Z" fill="#939393"/>
<path d="M406.3 133.4H400H399.4H398.4V136.6V158.5H407.4V133.4H406.3Z" fill="#7C6F6A"/>
<path d="M399.4 128V133.4H398.4V136.6L394.1 145.2L391.3 143.7L399.1 127.8L399.4 128Z" fill="#F4F4F4"/>
<path d="M395.3 178.6H391.3V188H395.3V178.6Z" fill="#939393"/>
<path d="M394.1 62.3H346.4V63H394.1V62.3Z" fill="#A3A3A3"/>
<path d="M394.1 60.3H346.4V60.9001H394.1V60.3Z" fill="#A3A3A3"/>
<path d="M394.1 58.3H346.4V58.9001H394.1V58.3Z" fill="#A3A3A3"/>
<path d="M394.1 56.2001H346.4V56.8001H394.1V56.2001Z" fill="#A3A3A3"/>
<path d="M394.1 54.2001H346.4V54.8001H394.1V54.2001Z" fill="#A3A3A3"/>
<path d="M394.1 52.2001H346.4V52.8001H394.1V52.2001Z" fill="#A3A3A3"/>
<path d="M394.1 50.1001H346.4V50.7001H394.1V50.1001Z" fill="#A3A3A3"/>
<path d="M391.3 178.6H387.1V188H391.3V178.6Z" fill="#CECECE"/>
<path d="M390.4 0.300049V0.800049C389.9 0.700049 389.4 0.700049 388.8 0.600049V0.300049H390.4Z" fill="#4C4C4C"/>
<path d="M388.5 270H308.4L284.3 245.9H320V256.5L309.5 259.4C308.8 259.6 308.9 260.6 309.7 260.6H339.2V261.9H380.3L388.5 270Z" fill="#D6D6D6"/>
<path d="M387.1 178.6H383.8V188H387.1V178.6Z" fill="#939393"/>
<path d="M386.1 213.8V223.8H378.1V215.5V213.8H386.1Z" fill="#CECECE"/>
<path d="M380.4 258.6V261.8H355.3V255.5L357.3 253.6H364.5L375.3 257L380.4 258.6Z" fill="#332D2B"/>
<path d="M368.8 138V148.5C370.9 148.4 373.1 148.3 375.3 148.2C376.5 148.2 377.7 148.1 379 148.1C379 146.5 379 143.7 379 141.4C379 139.8 379 138.5 379 138C378.9 136.7 368.8 138 368.8 138Z" fill="#939393"/>
<path d="M375.3 257L364.5 253.6V246.7L375.3 257Z" fill="#D6D6D6"/>
<path d="M375.3 148.3L369.9 158.5H368.9V148.6C370.8 148.5 373 148.4 375.3 148.3Z" fill="#665E5A"/>
<path d="M373.1 178.1C373.1 183.5 369.5 182.5 369.5 182.5V178.1H368.8V174.6C371.1 174.8 373.1 175.7 373.1 178.1Z" fill="#F7A57C"/>
<path d="M369.8 158.5L368.8 160.4V158.5H369.8Z" fill="#939393"/>
<path d="M369.5 178.1H368.8V182.5H369.5V178.1Z" fill="#074DA0"/>
<path d="M368.8 206.4V237.8H364.5V206.6L368.8 206.4Z" fill="#BCBCBC"/>
<path d="M368.8 182.5V194.3H364.5C364.7 191.4 362.6 189.8 362.6 189.8H337.3L346.1 178.2V182.6H368.8V182.5Z" fill="#BCBCBC"/>
<path d="M368.8 178.1H346.1V182.5H368.8V178.1Z" fill="#485260"/>
<path d="M368.8 174.6V178.1H362.6V175C362.6 175 365.9 174.3 368.8 174.6Z" fill="#F7A57C"/>
<path d="M368.8 169V174.6C365.9 174.3 362.6 175 362.6 175C358.6 174.9 354.4 172.4 350.6 169H368.8Z" fill="#BCBCBC"/>
<path d="M368.8 138V148.5C366.5 148.6 364.4 148.8 362.6 148.9V77.2001H368.8V138Z" fill="#BFBFBF"/>
<path d="M364.5 206.7V253.6H357.3L356.3 245.8L355.3 237.8L351.4 207.3L364.5 206.7Z" fill="#B6E4FB"/>
<path d="M364.5 194.3H333.9L337.3 189.8H362.6C362.6 189.7 364.7 191.4 364.5 194.3Z" fill="#B6E4FB"/>
<path d="M378.9 148.2C377.7 148.2 376.5 148.3 375.2 148.3L369.8 158.5H393.5C393.5 158.5 393.5 152.1 393.5 149.3C393.5 148.1 386.7 148 378.9 148.2Z" fill="#665E5A"/>
<path d="M357.4 149.3V158.5H362.5H368.7V148.6C366.4 148.7 364.3 148.9 362.5 149C359.5 149.2 357.4 149.3 357.4 149.3Z" fill="#665E5A"/>
<path d="M362.6 77.2001V149C359.5 149.2 357.5 149.4 357.5 149.4V158.6H349.6V122.7L351 119.9H351.4V119.1L357.5 106.9L354.3 105.6L348.6 117.2H342.2V124.7L347.1 119.8L347.2 119.9V120.1L344.4 125.8L347.2 127.3V158.5H341.8C338.4 153.3 335.9 147.9 335.3 144.4C334.7 141.1 331.7 137.4 328.1 134L362.6 77.2001Z" fill="white"/>
<path d="M362.6 77.2001L328.1 134C326.5 132.5 324.8 131 323.1 129.7C324 129.3 324.6 128.5 324.9 127.3C326.3 120.8 321.7 122.3 324.2 115.3L328.7 115.9C328.7 115.9 326.1 107.6 327.1 105C328.2 102.4 328.7 100.8 328.7 100.8C328.7 100.8 340.6 97.4001 337.6 90.3001C334.6 83.2001 329 80.4001 323.4 85.1001C320.7 87.3001 316.8 86.6001 313.2 85.5001V77.2001H362.6Z" fill="#F4F4F4"/>
<path d="M357.4 106.9L351.3 119.1V117.2H348.6L354.3 105.6L357.4 106.9Z" fill="#F4F4F4"/>
<path d="M357.3 253.6L355.3 255.5L348.2 253.6L348.7 245.8H356.3L357.3 253.6Z" fill="#D6D6D6"/>
<path d="M356.3 245.9H348.7L349.2 237.9H355.2L356.3 245.9Z" fill="#E5E5E5"/>
<path d="M355.3 255.5V261.8H339.3V253.6H348.3L355.3 255.5Z" fill="#1E1511"/>
<path d="M355.3 237.9H349.3L351.3 207.4L355.3 237.9Z" fill="#BCBCBC"/>
<path d="M351.3 119.1V119.9H350.9L351.3 119.1Z" fill="white"/>
<path d="M351.3 207.4L349.3 237.9L348.8 245.9L348.3 253.7H341.4L340.4 245.9L339.4 237.9L337.4 222.9H344.5V207.8L351.3 207.4Z" fill="#91C4DE"/>
<path d="M350.9 119.9L349.5 122.7V119.9H350.9Z" fill="#F4F4F4"/>
<path d="M349.5 122.7V158.6H347.1V127.4L349.5 122.7Z" fill="#7C6F6A"/>
<path d="M349.5 119.9V122.7L347.1 127.4V120.2L347.2 120H349.5V119.9Z" fill="#7C6F6A"/>
<path d="M348.6 117.2H342.2V124.7L347.1 119.8L347.2 119.9H347.3H349.6H351L351.4 119.1V117.2H348.6Z" fill="#665E5A"/>
<path d="M347.3 119.9L347.2 120.1V119.9H347.3Z" fill="white"/>
<path d="M347.2 120.1V127.3L344.4 125.8L347.2 120.1Z" fill="#F4F4F4"/>
<path d="M368.8 194.3V206.5L364.5 206.7L351.3 207.4L344.4 207.8V222.9H309.1V212H292.7V207.2L298.6 207.3L313.3 207.5V205.5C317.5 204.3 321.3 202.7 324.3 201C330.4 197.7 333.9 194.3 333.9 194.3H368.8Z" fill="#485260"/>
<path d="M341.3 253.6H339.3V258.9L330.3 256.5V245.9H340.3L341.3 253.6Z" fill="#D6D6D6"/>
<path d="M340.3 245.9H330.3V237.9H339.3L340.3 245.9Z" fill="#E5E5E5"/>
<path d="M339.3 258.9V260.6H309.8C309.1 260.6 308.9 259.6 309.6 259.4L320.1 256.5H330.4L339.3 258.9Z" fill="#494949"/>
<path d="M339.3 237.9H330.3V222.9H337.3L339.3 237.9Z" fill="#BCBCBC"/>
<path d="M332.1 59.9H310.5V70.6H332.1V59.9Z" fill="#939393"/>
<path d="M330.3 222.8H320V256.5H330.3V222.8Z" fill="#7F8999"/>
<path d="M362.6 175V178.1H346.1L337.3 189.7L333.9 194.2C333.9 194.2 330.4 197.6 324.3 200.9C321.2 202.6 317.5 204.2 313.3 205.4C309.7 206.4 305.6 207 301.3 207C300.2 207 299.1 207 298.1 207C295.1 205.8 292.9 203.7 291.3 200.9C286.9 193.5 286.8 181.3 288.5 168.8C288.7 167.1 289 165.3 289.3 163.6C289.6 161.8 289.9 160.1 290.3 158.4C294.1 139.9 300.3 123.3 300.3 123.3H314C314 123.3 318.3 125.9 323.1 129.7C324.8 131 326.5 132.5 328.1 133.9C331.7 137.3 334.7 141 335.3 144.3C335.9 147.8 338.4 153.2 341.8 158.4C343 160.2 344.3 161.9 345.6 163.6C347.1 165.5 348.8 167.3 350.5 168.8C354.4 172.4 358.5 174.9 362.6 175Z" fill="#B6E4FB"/>
<path d="M320 245.9H284.3L308.4 270H279.1L267.4 260.2L265.1 258.1L253.7 255.2L255.1 237.8H320V245.9Z" fill="#E5E5E5"/>
<path d="M320 222.8H313.3V237.8H320V222.8Z" fill="#BCBCBC"/>
<path d="M309.1 222.8V212H292.7V207.2C279.8 207.6 275.4 208.4 275.4 201.9C275.4 201.6 275.4 201.3 275.4 200.9H261.2V237.8H313.4V222.8H309.1ZM304.3 225H271V222.5H304.2V225H304.3Z" fill="#B2B2B2"/>
<path d="M313.3 205.5V207.5L298.6 207.3C298.4 207.2 298.2 207.2 298.1 207.1C299.1 207.1 300.2 207.1 301.3 207.1C305.6 207.1 309.6 206.5 313.3 205.5Z" fill="#485260"/>
<path d="M327.2 105.2C328.3 102.6 328.8 101 328.8 101C328.8 101 321.2 97.8001 318.4 101C315.6 104.2 317.4 104.9 314.1 104.1C313.8 104 313.6 104 313.3 103.9C311.6 103.6 309.8 103.7 308.7 104.8C307.8 105.7 307.3 107.3 307.8 109.9C308.9 116.1 313 113 313 113C313 113 313.1 113.7 313.3 114.7C313.7 117.1 314.7 121 316.7 120.8C319.5 120.5 316 116.9 324.2 115.5L328.7 116.1C328.8 116 326.1 107.8 327.2 105.2Z" fill="#F7A57C"/>
<path d="M313.3 77.2001V85.5001C311 84.8001 308.8 84.0001 307 83.8001V77.2001H313.3Z" fill="#BFBFBF"/>
<path d="M311.2 123.4H307V120.9C308 120.2 309.1 119.1 310.4 117.6L311.2 123.4Z" fill="#F7A57C"/>
<path d="M309.5 103.4L308.4 104.4L307 105.7V101L309.5 103.4Z" fill="#CECECE"/>
<path d="M307 120.9V123.4H300.2V120.7C300.2 120.7 302.3 124.4 307 120.9Z" fill="#F7A57C"/>
<path d="M324.2 115.4C316 116.9 319.5 120.4 316.7 120.7C314.7 120.9 313.7 117 313.3 114.6C313.1 113.6 313 112.9 313 112.9C313 112.9 308.8 116 307.8 109.8C307.4 107.2 307.8 105.6 308.7 104.7L308.4 104.4L307 105.7L304.3 108.2L300.5 111.7C301.3 116.1 300.3 120.6 300.3 120.6C300.3 120.6 302.3 124.3 307.1 120.8C308.1 120.1 309.2 119 310.5 117.5L311.3 123.2H313.3H314C314 123.2 318.3 125.8 323.1 129.6C324 129.2 324.6 128.4 324.9 127.2C326.3 120.9 321.8 122.3 324.2 115.4Z" fill="#1E1511"/>
<path d="M307 101.1V105.8L301.3 100.5L303 97.4L307 101.1Z" fill="#CECECE"/>
<path d="M337.7 90.4C334.7 83.3 329.1 80.5 323.5 85.2C320.8 87.4 316.9 86.7 313.3 85.6C311 84.9 308.9 84.1 307 83.9C305.6 83.7 304.4 83.8 303.6 84.5C300.1 87.6 304.8 93.7 302.9 96.7C301.5 98.8 299 101.5 298.7 104.7L299.5 103.9L301.3 100.5L303 97.4L307 101.1L309.5 103.4L308.4 104.4L308.7 104.7C309.8 103.6 311.6 103.5 313.3 103.8C313.6 103.8 313.8 103.9 314.1 104C317.4 104.8 315.7 104.2 318.4 100.9C321.2 97.7 328.8 100.9 328.8 100.9C328.8 100.9 340.7 97.5 337.7 90.4Z" fill="#1E1511"/>
<path d="M307 77.2001L286.7 109.6C286.4 109.6 286.2 109.6 285.9 109.6C281.2 109.1 282 102.1 282 102.1L274 89.5001C274 89.5001 271.9 87.6001 271.2 86.5001C271.2 86.0001 271.1 85.8001 271 85.8001L269.6 84.2001C272.2 82.9001 274.4 79.4001 275.3 77.2001H307Z" fill="#F4F4F4"/>
<path d="M307 105.8L304.3 108.4L299.4 103.9L301.2 100.5L307 105.8Z" fill="#A3A3A3"/>
<path d="M304.3 222.6H271V225.1H304.2V222.6H304.3Z" fill="#939393"/>
<path d="M304.3 108.3L300.5 111.8C300.3 110.6 299.9 109.4 299.4 108.3C298.7 107 298.6 105.7 298.7 104.5L299.5 103.7L304.3 108.3Z" fill="#B7B7B7"/>
<path d="M300.2 120.7V123.4H297.7C286.1 134.1 280 146.6 277 158.5H270.3L273.3 130.8L277.7 123.7C280.1 122.5 281.6 121.7 281.6 121.7C281.6 121.7 287.5 132 294.8 119.8C294.8 119.8 295.7 118.6 294.6 117.1L300.3 111.8C301.2 116.2 300.2 120.7 300.2 120.7Z" fill="white"/>
<path d="M300.4 111.9L294.7 117.2C294.1 116.4 292.8 115.5 290.3 114.8C290.4 114.8 294.1 114.1 295.6 111.5C296.2 110.4 295.8 109.1 295.1 108L298.6 104.7C298.5 105.9 298.7 107.2 299.3 108.5C299.9 109.5 300.2 110.7 300.4 111.9Z" fill="#B7B7B7"/>
<path d="M298.1 207.1C296.2 207.1 294.4 207.2 292.7 207.2C279.8 207.6 275.4 208.4 275.4 201.9C275.4 201.6 275.4 201.3 275.4 200.9C275.1 196 273.2 183.5 275.1 168.8C275.3 167.1 275.6 165.3 275.9 163.6C276.2 161.9 276.6 160.1 277.1 158.4C280.2 146.5 286.2 134 297.8 123.3H300.3C300.3 123.3 294.1 139.9 290.3 158.4C289.9 160.1 289.6 161.9 289.3 163.6C289 165.3 288.7 167.1 288.5 168.8C286.8 181.3 286.9 193.4 291.3 200.9C292.9 203.8 295.1 205.9 298.1 207.1Z" fill="#91C4DE"/>
<path d="M295.1 107.9C295.8 109 296.3 110.3 295.6 111.4C294.1 114 290.4 114.7 290.3 114.7C290.1 114.6 289.8 114.6 289.6 114.5C289.2 114.4 288.8 114.3 288.5 114.2L295.1 107.9Z" fill="#B7B7B7"/>
<path d="M292.6 53.5001C293.6 56.8001 281.6 62.7001 281.4 62.8001C281.4 59.8001 280.2 57.0001 276.8 55.0001C268.6 50.2001 264.5 58.0001 262 60.3001C259.6 62.6 263.7 57.3001 258.6 57.5001C255.4 46.6001 264.8 39.0001 273.6 43.5001C282.4 48.0001 291.6 50.2001 292.6 53.5001Z" fill="#1E1511"/>
<path d="M292.7 105.3C292.7 105.3 290.9 109.5 286.7 109.6C286.4 109.6 286.2 109.6 285.9 109.6C281.2 109.1 282 102.1 282 102.1L274 108V113.9L276.7 116.4C279.3 115.2 281.5 114.3 283.9 114C285.3 113.9 286.7 113.9 288.4 114.2L295.1 107.9C294.1 106.5 292.7 105.3 292.7 105.3Z" fill="#EA9260"/>
<path d="M274 89.5L282.1 102.1L274 108V89.5Z" fill="#91C4DE"/>
<path d="M279.1 270H231.8L220.4 260.6H235.7L229.6 255.3L232.4 242.6H246.6L247.4 255.3H245.7V260.3H267.4L279.1 270Z" fill="#D6D6D6"/>
<path d="M277.1 158.5C276.7 160.3 276.2 162 275.9 163.7H269.8L270.4 158.5H277.1Z" fill="#939393"/>
<path d="M275.9 163.8C275.6 165.6 275.3 167.3 275.1 169H269.3L269.9 163.8H275.9Z" fill="#CECECE"/>
<path d="M275.3 201H261.1V200C264 199.6 265.9 199.4 265.9 199.4L269.3 168.9H275.2C273.1 183.7 275 196.1 275.3 201Z" fill="#BCBCBC"/>
<path d="M271.8 75.4C272.1 75.5 272.2 75.9 271.9 76C271.1 76.5 269.9 77.2 268.6 77.2C267.8 77.2 266.9 76.9 266.1 76.2C263.1 73.6 263.4 70.8 263.9 70.5C263.9 70.5 263.9 70.5 264 70.5C264.6 70.6 269.6 74.7 271.8 75.4Z" fill="#EA9260"/>
<path d="M276 75.4001C274.2 73.1001 272.2 71.6001 270.3 70.6001C265.9 68.3001 261.9 68.4001 261.9 68.4001C261.3 69.1001 260.8 69.8001 260.5 70.6001C259.7 72.3001 259.4 74.2001 259.7 76.1001C259.8 76.5001 259.8 76.9001 260 77.3001C260.7 80.0001 262.6 82.5 265.3 84.2C266.9 85.1 268.4 85.0001 269.7 84.3001C272.3 83.0001 274.5 79.5001 275.4 77.3001C275.9 76.2001 276.1 75.5001 276 75.4001ZM266.1 76.3001C263.1 73.7001 263.4 70.9001 263.9 70.6001C263.9 70.6001 263.9 70.6001 264 70.6001C264.7 70.6001 269.6 74.8001 271.9 75.5001C272.2 75.6001 272.3 76.0001 272 76.1001C271.2 76.6001 270 77.3001 268.7 77.3001C267.8 77.2001 266.9 77.0001 266.1 76.3001Z" fill="#1E1511"/>
<path d="M267.4 260.2H245.7V255.2H247.4H253.6L265 258.1L267.4 260.2Z" fill="#1E1511"/>
<path d="M261.1 201V237.8H255.2L258.2 201H261.1Z" fill="#BCBCBC"/>
<path d="M261.1 200.1V201.1H258.1L258.2 200.5C259.2 200.3 260.2 200.2 261.1 200.1Z" fill="#BCBCBC"/>
<path d="M263.5 130.5L260.1 152L259.1 158.4L258.3 163.6L257.5 168.8L252.4 200.9C254.4 200.7 256.4 200.5 258.1 200.3C259.2 200.2 260.1 200.1 261 199.9C263.9 199.5 265.8 199.3 265.8 199.3L269.2 168.8L269.8 163.6L270.4 158.4L273.4 130.7L274 125.5C270.9 127.2 267.2 128.9 263.5 130.5Z" fill="#FF6E3B"/>
<path d="M276.8 55C268.6 50.2 264.4 58 262 60.3C259.6 62.6 263.7 57.3 258.6 57.5C253.6 57.6 257.1 64.2 258.6 65.1C259.3 65.5 258.9 67.9 258.2 70.5C257.5 73.1 256.6 76 256.2 77.2H257.1L259.4 76H259.5C259.2 74.2 259.5 72.3 260.3 70.5C260.7 69.7 261.1 69 261.7 68.3C261.7 68.3 265.7 68.2 270.1 70.5C272.1 71.5 274.1 73.1 275.8 75.3C276.9 73.8 278 72.2 279 70.5C280.3 68 281.3 65.3 281.3 62.7C281.5 59.8 280.2 57 276.8 55Z" fill="#F7A57C"/>
<path d="M188.6 70.6001H258.4C257.7 73.2001 256.8 76.1001 256.4 77.3001H202V158.6H199.6V150.3H198V130.4H196.2V150.3H194.6V158.6H188.5V147.6V70.6001H188.6Z" fill="#CECECE"/>
<path d="M258.1 200.4L258 201H252.3C254.4 200.8 256.4 200.6 258.1 200.4Z" fill="#91C4DE"/>
<path d="M252.4 201H258.1L255.1 237.9H246.3L244 201.7C246.9 201.5 249.7 201.3 252.4 201Z" fill="#91C4DE"/>
<path d="M257.2 77.2001L256.1 77.8001C256.1 77.8001 256.2 77.6001 256.3 77.2001H257.2Z" fill="#F7A57C"/>
<path d="M201.9 77.2001H256.3C256.2 77.6001 256.1 77.8001 256.1 77.8001C256.1 77.8001 249.5 80.7001 238.8 80.7001C228.1 80.7001 232.9 107 232.9 107L233.9 109.6V110.8L215.1 138.8C215.1 138.2 215.1 137.8 215.1 137.5C215.1 135.5 208.2 137.5 208.2 137.5V146.5H204.7V154.4L201.9 158.6V77.2001ZM215.3 105.6L225.6 85.1001L222.4 83.8001L212.4 104.1L215.3 105.6Z" fill="#F4F4F4"/>
<path d="M271.2 86.5C271.4 89.2 271 99 271 99H256.1H251.4H248.5V107H246.4C246.4 107 249.2 119.2 251.9 121.8C253 122.8 254.3 123.2 256.1 123.2C259 123.2 263.1 122 268.9 119.8C270.8 119.1 272.4 118.4 273.9 117.7V113.9V108V89.5C274 89.5 271.9 87.6 271.2 86.5ZM269.9 114H256.1H252.2V105.1H256.1H269.9V114Z" fill="#FF6E3B"/>
<path d="M256.1 105.1H252.2V114H256.1H269.9V105.1H256.1Z" fill="#FF815A"/>
<path d="M269.7 84.2C268.3 84.9 266.8 85 265.3 84.1C262.5 82.4 260.7 79.9 260 77.2C259.9 76.8 259.8 76.4 259.7 76H259.6L257.3 77.2L256.2 77.8C256.1 77.9 254.9 81.4 256.2 84C257.5 86.6 261.3 88.5 271.1 85.8L269.7 84.2Z" fill="#EA9260"/>
<path d="M271.2 86.5C271 86.2 270.9 85.9 271 85.8C261.2 88.5 257.4 86.6 256.1 84C254.8 81.3 256 77.9 256.1 77.8C256.1 77.8 249.5 80.7 238.8 80.7C228.1 80.7 232.9 107 232.9 107H236.5H246.4H248.5V99V90.5L251.4 99H256.1H271C271 99 271.4 89.2 271.2 86.5Z" fill="#B6E4FB"/>
<path d="M246.7 242.6L246.4 237.9H255.2L253.8 255.3H247.6L246.7 242.6Z" fill="#91C4DE"/>
<path d="M248.5 90.5L251.4 99H248.5V90.5Z" fill="#91C4DE"/>
<path d="M246.4 237.9L246.7 242.6H232.5L233.5 237.9H246.4Z" fill="#E5E5E5"/>
<path d="M244.1 201.7L246.4 237.9H233.5L241.3 201.9C242.2 201.8 243.1 201.8 244.1 201.7Z" fill="#BCBCBC"/>
<path d="M241.5 200.7L241.4 201H228.7V200.7H238.7H241.5Z" fill="#FF815A"/>
<path d="M241.3 201.9L233.5 237.9H224.3L228.7 201.6C231.8 202.1 236.4 202.1 241.3 201.9Z" fill="#91C4DE"/>
<path d="M234.3 110.4L240.9 127.2L238.8 142.3C238.8 142.3 233.9 142.9 233.9 145.2V110.9L234.3 110.4Z" fill="#91C4DE"/>
<path d="M294.7 117.2C294.1 116.4 292.8 115.5 290.3 114.8C290.1 114.7 289.8 114.7 289.6 114.6C289.2 114.5 288.8 114.4 288.5 114.3C286.9 114 285.4 113.9 284 114.1C281.6 114.4 279.3 115.3 276.8 116.5C276 116.9 275 117.3 274.1 117.8C272.6 118.5 271 119.2 269.1 119.9C263.3 122.1 259.2 123.3 256.3 123.3C254.5 123.3 253.2 122.8 252.1 121.9C249.3 119.3 246.6 107.1 246.6 107.1H236.6H233L234 109.7L234.3 110.5L240.9 127.3C240.9 127.3 243.7 137.9 253.4 134.7C254.3 134.4 255.2 134.1 256.2 133.7C258.5 132.8 261 131.8 263.6 130.6C267.2 129 270.9 127.2 274.1 125.7C275.5 125 276.9 124.4 278 123.8C280.4 122.6 281.9 121.8 281.9 121.8C281.9 121.8 287.8 132.1 295.1 119.9C294.9 119.8 295.9 118.6 294.7 117.2Z" fill="#F7A57C"/>
<path d="M235.8 260.6H220.5V255.3H222.2H229.7L235.8 260.6Z" fill="#1E1511"/>
<path d="M234 109.6L234.3 110.4L234 110.8V109.6Z" fill="#91C4DE"/>
<path d="M234 110.8V145.2C232.7 148.8 231.6 153.4 230.6 158.5H217.8V146.4H215.2C215.2 146.4 215.2 141.5 215.2 138.8L234 110.8Z" fill="white"/>
<path d="M233.5 237.9L232.5 242.6L229.7 255.3H222.2L224.3 237.9H233.5Z" fill="#91C4DE"/>
<path d="M188.6 237.9H224.3L222.2 255.3H220.5V260.6L231.9 270" fill="#E5E5E5"/>
<path d="M217.7 158.5H230.5C230.2 160.2 229.9 162 229.6 163.7H188.5V161.6V158.5H194.6H199.5H201.9H204.7H217.7Z" fill="#939393"/>
<path d="M206.5 169H188.6V163.8H229.7C229.4 165.5 229.2 167.3 228.9 169H206.5Z" fill="#CECECE"/>
<path d="M206.5 169H228.9C226.6 184.8 225.7 200.8 225.7 200.8C225.9 200.9 226.1 201 226.4 201.1H206.6V169H206.5Z" fill="#BCBCBC"/>
<path d="M256.1 133.6C255.1 134 254.2 134.3 253.3 134.6C243.6 137.8 240.8 127.2 240.8 127.2L238.7 142.3C238.7 142.3 233.8 142.9 233.8 145.2C232.5 148.8 231.4 153.4 230.4 158.5C230.1 160.2 229.8 162 229.5 163.7C229.2 165.4 229 167.2 228.7 168.9C226.4 184.7 225.5 200.7 225.5 200.7C225.7 200.8 225.9 200.9 226.2 201C226.8 201.2 227.6 201.4 228.5 201.6C231.6 202.1 236.2 202.1 241.1 201.9C242 201.9 242.9 201.8 243.9 201.8C246.7 201.6 249.5 201.4 252.2 201.1L257.3 169L258.1 163.8L258.9 158.6L259.9 152.2L263.3 130.7C260.9 131.7 258.4 132.7 256.1 133.6ZM228.7 201V200.7H238.7C239.1 200.3 239.6 200.2 240.2 200.1C239.6 200.2 239.1 200.3 238.7 200.7H241.4L241.3 201H228.7Z" fill="#FF815A"/>
<path d="M206.5 201H226.3C226.9 201.2 227.7 201.4 228.6 201.6L224.2 237.9H188.5V215.5V201H206.5ZM195.1 235.1V205.8H193.2V235.1H195.1Z" fill="#BCBCBC"/>
<path d="M217.7 146.4V158.5H204.7V154.3L210 146.4H215.1H217.7Z" fill="#665E5A"/>
<path d="M215.2 138.8C215.2 141.6 215.2 146.4 215.2 146.4H210L215.2 138.8Z" fill="#939393"/>
<path d="M215.2 137.5C215.2 137.8 215.2 138.3 215.2 138.8L210.1 146.4H208.3V137.4C208.3 137.5 215.2 135.5 215.2 137.5Z" fill="#939393"/>
<path d="M210.1 146.4L204.8 154.3V146.4H208.3H210.1Z" fill="#665E5A"/>
<path d="M206.5 169V201H188.6V169H206.5ZM203.1 192.5V177H200.2V192.5H203.1Z" fill="#CECECE"/>
<path d="M204.8 154.3V158.5H202L204.8 154.3Z" fill="white"/>
<path d="M203.1 177.1H200.2V192.5H203.1V177.1Z" fill="#939393"/>
<path d="M198 150.2H199.5V158.5H194.6V150.2H196.2H198Z" fill="#665E5A"/>
<path d="M198 130.2H196.2V150.1H198V130.2Z" fill="#7C6F6A"/>
<path d="M195.1 205.8H193.2V235.1H195.1V205.8Z" fill="#939393"/>
<path d="M188.6 158.5H93V169.3H188.6V158.5Z" fill="#E5E5E5"/>
<path d="M188.3 218H142V238H188.3V218Z" fill="#C7C7C7"/>
<path d="M142 186.3H93V202.3H142V186.3Z" fill="#B4B3B4"/>
<path d="M127.9 162.3H105.6V165.8H127.9V162.3Z" fill="#888888"/>
<path d="M121.9 176.3H112.2V179.8H121.9V176.3Z" fill="#888888"/>
<path d="M121.9 192.5H112.2V196H121.9V192.5Z" fill="#888888"/>
<path d="M121.9 208.7H112.2V212.2H121.9V208.7Z" fill="#888888"/>
<path d="M121.9 224.5H112.2V228H121.9V224.5Z" fill="#888888"/>
<path d="M169.4 224.5H159.7V228H169.4V224.5Z" fill="#888888"/>
<path d="M188.3 169.3H142V218H188.3V169.3Z" fill="#B4B3B4"/>
<path d="M148.654 208.662V186.362H145.154V208.662H148.654Z" fill="#888888"/>
<path d="M16.9 70.7001V158.5H159L179.1 85.0001V70.7001H16.9Z" fill="#F4F4F4"/>
<path d="M135.045 92.0053L133.188 91.2623L123.529 115.401L125.386 116.144L135.045 92.0053Z" fill="white"/>
<path d="M140.922 108.336L139.065 107.593L131.263 127.09L133.12 127.833L140.922 108.336Z" fill="white"/>
<path d="M142.819 131.75L140.962 131.007L135.947 143.54L137.803 144.283L142.819 131.75Z" fill="white"/>
<path d="M100.6 177.4H105.6C102.1 188.4 99.2 200.7 99.2 200.7H97C96.7 199.4 95.8 198.3 94.5 197.9C96.4 189.2 98.5 182.5 100.6 177.4Z" fill="#FF815A"/>
<path d="M91.4 219.8C95 225.7 97.7 232.1 97.4 237.4L96.5 254.6H80.7L78.2 219.8H91.4Z" fill="#6DB6D2"/>
<path d="M91.5 177.4C93.1 184 93.9 191 93 197.7C91.3 197.9 89.9 199.1 89.6 200.8H84.3C84.3 200.8 84.5 189.5 84.2 177.4H91.5Z" fill="#FF815A"/>
<path d="M91.5 177.4H84.1C83.7 166.1 82.8 154 80.6 150.1C81.4 151.5 88.1 163.4 91.5 177.4Z" fill="#FF815A"/>
<path d="M84.2 200.8H79.5C80.3 196.3 76.2 185.9 72.3 177.4H76C80.7 187.8 84.2 200.8 84.2 200.8Z" fill="#FF815A"/>
<path d="M76 177.4H72.4C69.2 170.3 66 164.5 66 164.5C69.4 165.1 73 170.7 76 177.4Z" fill="#FF815A"/>
<path d="M76.9 200.9L78.2 219.8L96.5 254.6L98.9 208.7L86 206.2L76.9 200.9Z" fill="#81CDEA"/>
<path d="M76.9 200.9L86 206.2L98.9 208.7L99.3 200.7L94.6 197.9L91.5 197.5H88.7L87 200.9H76.9Z" fill="#A7E5F9"/>
</svg>
