<svg width="411" height="204" viewBox="0 0 411 204" fill="none" xmlns="http://www.w3.org/2000/svg">
<path d="M362.917 155.724H411V204H386.859L373.591 190.706C373.591 187.008 372.095 183.61 369.601 181.111C367.207 178.612 363.815 177.113 360.024 177.113H356.034L353.44 171.016V155.724H362.917Z" fill="#E5E5E5"/>
<path d="M411 130.136V155.724H362.917V133.934C366.907 133.035 370.598 131.735 373.99 130.236H411V130.136ZM394.54 144.029V139.032H380.374V144.029H394.54Z" fill="#BCBCBC"/>
<path d="M411 81.1602V130.136H373.99C385.462 124.839 393.143 116.243 393.742 106.348H394.54V101.35H393.443C391.946 93.2542 385.761 86.0578 376.584 81.1602H411Z" fill="#B2B2B2"/>
<path d="M411 70.8652V81.2601H376.683C368.803 76.9622 358.627 74.4635 347.654 74.4635C347.056 74.4635 346.457 74.4635 345.958 74.4635C345.36 74.4635 344.761 74.4635 344.163 74.4635C343.265 74.4635 342.267 74.4635 341.369 74.5634C340.97 74.5634 340.571 74.5634 340.172 74.5634C339.873 73.364 339.474 72.1646 339.075 70.9652H375.586H382.07H389.851H395.737H401.623H405.813L411 70.8652Z" fill="#B7B7B7"/>
<path d="M411 70.2656H405.912V70.8653H411V70.2656Z" fill="#B7B7B7"/>
<path d="M411 55.3728V70.2655H405.912V59.4708L411 55.3728Z" fill="white"/>
<path d="M411 16.7917V55.3728L405.912 59.4708V56.7721H403.817V50.975H401.723V56.7721V57.172V62.7692L395.837 67.4669V55.9725H397.333V51.6747H392.345V16.7917H411Z" fill="#F4F4F4"/>
<path d="M411 7.99609V16.7918H392.345V51.6747H386.061V55.9726H389.951V70.8653H382.17V70.2656H385.163V16.7918H335.683C337.18 14.4929 337.279 11.1945 335.783 7.99609H411Z" fill="#B7B7B7"/>
<path d="M405.912 70.2656H401.723V70.8653H405.912V70.2656Z" fill="#B2B2B2"/>
<path d="M405.912 59.4708V70.2655H401.723V62.7692L405.912 59.4708Z" fill="#B2B2B2"/>
<path d="M405.912 56.7722V59.4709L401.723 62.7693V57.172H403.817V56.7722H405.912Z" fill="#B2B2B2"/>
<path d="M403.817 56.7722H401.723V57.172H403.817V56.7722Z" fill="#B2B2B2"/>
<path d="M403.817 50.8751H401.723V56.6723H403.817V50.8751Z" fill="#828282"/>
<path d="M401.723 70.2656H395.837V70.8653H401.723V70.2656Z" fill="#B7B7B7"/>
<path d="M401.723 62.7693V70.2656H395.837V67.467L401.723 62.7693Z" fill="white"/>
<path d="M397.433 51.5747V55.9726H395.937H392.445V51.6747H397.433V51.5747Z" fill="#B2B2B2"/>
<path d="M395.837 70.2655V70.8652H389.951V55.9725H392.345V70.2655H395.837Z" fill="#AFA68B"/>
<path d="M395.837 67.4669V70.2655H392.345L395.837 67.4669Z" fill="#AFA68B"/>
<path d="M395.837 55.9725V67.4669L392.345 70.2655V55.9725H395.837Z" fill="#AFA68B"/>
<path d="M394.54 139.032H380.375V144.029H394.54V139.032Z" fill="#939393"/>
<path d="M394.54 101.35V106.348H393.742C393.742 105.848 393.842 105.448 393.842 104.949C393.842 103.749 393.742 102.55 393.542 101.35H394.54Z" fill="#939393"/>
<path d="M392.445 51.5747V55.9726H390.051H386.061V51.6747H392.445V51.5747Z" fill="#828282"/>
<path d="M386.859 204L321.817 203.9L306.654 188.708H321.917H322.017C321.917 189.307 321.917 190.007 321.917 190.707H373.591L386.859 204Z" fill="#D6D6D6"/>
<path d="M385.163 16.7917V70.2655H382.17V55.3728H380.474V50.5752H377.282V55.3728H375.686V70.2655H338.975C336.681 63.4689 333.888 57.5718 331.793 53.7736C331.593 53.3738 331.294 52.8741 330.995 52.4743L385.163 16.7917ZM356.932 51.5747L375.087 37.6815L372.294 35.3826L353.839 48.5762L356.932 51.5747Z" fill="white"/>
<path d="M385.163 16.7917L330.895 52.4743C329.798 51.0749 328.201 49.9755 326.506 49.4757L326.605 49.1759L323.313 42.779V36.682C323.313 36.682 323.712 35.6825 324.012 34.2832C329.997 30.585 330.995 25.0877 329.299 19.9902C332.292 20.0901 334.386 18.7908 335.683 16.7917H385.163Z" fill="#F4F4F4"/>
<path d="M382.17 70.2656H375.686V70.8653H382.17V70.2656Z" fill="#828282"/>
<path d="M382.17 55.3728V70.2655H375.686V55.3728H377.282H380.474H382.17Z" fill="#828282"/>
<path d="M380.474 50.4752H377.282V55.2729H380.474V50.4752Z" fill="#AFA68B"/>
<path d="M375.586 70.2656V70.8653H339.075C338.975 70.6654 338.975 70.4655 338.875 70.2656H375.586Z" fill="#B7B7B7"/>
<path d="M375.187 37.6816L357.031 51.5748L354.039 48.5762L372.494 35.3827L375.187 37.6816Z" fill="#F4F4F4"/>
<path d="M373.591 190.607H321.917C321.917 189.907 322.017 189.307 322.017 188.608C322.416 185.509 323.912 182.81 326.007 180.811C328.401 178.512 331.693 177.113 335.284 177.113H342.367V179.812C342.367 182.81 344.761 185.209 347.754 185.209H348.053C351.046 185.209 353.44 182.81 353.44 179.812V177.113H356.034H360.024C363.715 177.113 367.107 178.612 369.601 181.111C372.095 183.51 373.591 186.908 373.591 190.607Z" fill="#5B5A5B"/>
<path d="M372.852 80.7869C365.523 76.7946 355.854 74.2994 345.268 74C344.25 74 343.232 74.0998 342.316 74.0998C350.764 74.6987 358.296 77.094 364.2 80.7869C371.63 85.3781 376.211 91.8656 376.211 99.1516C376.211 106.837 370.918 113.724 362.673 118.415C360.332 119.712 357.788 120.81 355.141 121.708C354.836 122.407 354.327 122.806 353.716 122.906C352.698 123.006 351.579 123.006 350.255 123.106C346.489 123.904 342.418 124.403 338.143 124.403C336.718 124.403 335.293 124.303 333.97 124.303C332.545 124.403 331.221 124.603 330 124.702C334.275 125.501 338.855 126 343.538 126C350.357 126 356.871 125.102 362.673 123.405C374.175 120.012 382.827 113.823 385.88 106.238C386.491 104.641 386.898 102.944 387 101.248C387 100.948 387 100.549 387 100.15C387 92.3647 381.504 85.5777 372.852 80.7869Z" fill="#FFCED2"/>
<path d="M362.917 133.934V155.724H353.44V135.434C356.732 135.134 359.924 134.634 362.917 133.934Z" fill="#B2B2B2"/>
<path d="M364.413 81.1602C358.727 77.562 351.245 75.0632 342.966 74.4635C342.068 74.5635 341.07 74.5634 340.172 74.6634C340.372 75.563 340.671 76.3626 340.871 77.2621C341.17 78.5615 341.569 79.8609 341.968 81.0603C342.966 83.9588 344.362 86.7575 346.158 89.2563C350.747 95.853 354.138 105.248 355.335 112.145C355.435 112.845 355.635 113.644 355.635 114.244C355.834 116.143 356.233 119.941 355.335 121.84C358.029 120.941 360.523 119.841 362.718 118.542C370.798 113.944 375.985 107.048 375.985 99.2513C376.284 92.3547 371.696 85.758 364.413 81.1602Z" fill="#EAAFB4"/>
<path d="M353.44 170.916L356.034 177.113H353.44V170.916Z" fill="#FF6E3B"/>
<path d="M355.535 122.14C355.236 122.84 354.737 123.24 354.138 123.34C353.141 123.44 352.043 123.44 350.747 123.539C352.442 123.04 354.039 122.64 355.535 122.14Z" fill="#FAC0C5"/>
<path d="M347.654 135.633C345.858 135.633 344.063 135.534 342.367 135.434V155.724V157.223V172.216V177.113V179.812C342.367 182.81 344.761 185.209 347.754 185.209H348.053C351.046 185.209 353.44 182.81 353.44 179.812V177.113V170.916V155.624V135.334C351.644 135.534 349.649 135.633 347.654 135.633Z" fill="#777777"/>
<path d="M393.542 101.35C392.046 93.2543 385.861 86.0578 376.683 81.1602C368.803 76.8623 358.627 74.3635 347.654 74.3635C347.056 74.3635 346.457 74.3635 345.858 74.3635C356.233 74.6634 365.71 77.1621 372.893 81.1602C381.372 85.8579 386.759 92.7545 386.759 100.251C386.759 100.651 386.759 100.95 386.759 101.35C386.659 103.049 386.26 104.749 385.662 106.348C382.669 113.944 374.19 120.241 362.917 123.539C357.231 125.239 350.846 126.138 344.163 126.138C339.574 126.138 335.085 125.738 330.895 124.839C327.703 125.239 325.109 125.638 323.613 126.038C321.318 126.738 319.223 127.238 317.627 128.037C318.824 128.737 320.021 129.337 321.318 129.936C324.71 131.535 328.401 132.735 332.391 133.734C335.583 134.434 338.875 134.934 342.267 135.234C344.063 135.334 345.759 135.434 347.554 135.434C349.549 135.434 351.445 135.334 353.34 135.234C356.632 134.934 359.725 134.434 362.817 133.734C366.808 132.835 370.499 131.536 373.89 130.036C385.362 124.739 393.044 116.143 393.642 106.248C393.642 105.748 393.742 105.348 393.742 104.849C393.842 103.749 393.742 102.55 393.542 101.35Z" fill="#FAC0C5"/>
<path d="M342.367 172.216V177.113H335.284C331.693 177.113 328.401 178.513 326.007 180.811C325.907 180.512 322.615 167.618 319.523 155.624H327.703L342.367 172.216Z" fill="#E5E5E5"/>
<path d="M342.367 135.434V155.724H341.768L335.583 141.331V140.431H335.184L332.391 133.934C335.584 134.634 338.975 135.134 342.367 135.434Z" fill="#B2B2B2"/>
<path d="M341.369 74.4635C341.968 74.4635 342.467 74.5634 343.065 74.5634C342.167 74.6634 341.17 74.6634 340.272 74.7634C340.272 74.6634 340.172 74.5635 340.172 74.4635C340.571 74.4635 340.97 74.4635 341.369 74.4635Z" fill="#B7B7B7"/>
<path d="M350.747 123.439C347.056 124.239 343.065 124.739 338.875 124.739C337.479 124.739 336.082 124.639 334.785 124.639C340.073 124.039 346.158 123.739 350.747 123.439Z" fill="#FAC0C5"/>
<path d="M318.625 145.429L327.703 155.724H319.523C318.625 152.125 317.627 148.527 316.829 145.429H318.625Z" fill="#B2B2B2"/>
<path d="M323.313 42.7791L326.605 49.1759L326.506 49.4758C325.707 49.2759 325.009 49.1759 324.111 49.1759H316.729L313.537 42.7791H323.313Z" fill="#EA9260"/>
<path d="M326.007 180.811C323.912 182.81 322.416 185.609 322.016 188.608H321.917H306.654V186.209L317.627 180.811H326.007Z" fill="#332D2B"/>
<path d="M321.817 203.9H290.194L277.026 190.706V181.811H266.452V155.724H307.053C312.24 168.717 317.627 180.911 317.627 180.911L306.654 186.209V188.608L321.817 203.9Z" fill="#E5E5E5"/>
<path d="M341.768 155.724L335.583 141.331L335.184 140.431L332.391 133.934C328.401 133.035 324.71 131.735 321.318 130.136C320.021 129.537 318.824 128.937 317.627 128.237C316.63 128.737 315.832 129.337 315.233 130.136C314.136 131.735 313.836 134.034 314.834 138.032C315.033 138.732 315.233 139.532 315.433 140.431C315.632 141.131 315.832 141.831 316.031 142.73L318.525 145.529L327.603 155.824L342.267 172.316V157.323L341.768 155.724Z" fill="#74A8C2"/>
<path d="M320.121 81.1603H318.725C319.124 80.9604 319.423 80.7605 319.822 80.5605C319.822 80.7605 320.021 81.0603 320.121 81.1603Z" fill="#FAC0C5"/>
<path d="M316.131 142.63L318.625 145.429H316.829C316.63 144.429 316.43 143.53 316.131 142.63Z" fill="#B2B2B2"/>
<path d="M355.834 114.444C355.734 113.744 355.635 113.045 355.535 112.345C350.846 107.447 341.868 107.447 335.583 108.147C331.693 108.547 328.9 109.246 328.9 109.246C327.703 109.346 326.506 109.546 325.308 109.746C318.226 110.746 312.639 112.245 308.25 114.144C308.15 114.144 308.05 114.244 308.05 114.244C308.549 114.744 309.048 115.144 309.547 115.643C309.048 115.144 308.45 114.744 308.05 114.244C306.754 114.844 305.557 115.443 304.559 116.043C299.372 119.042 297.077 122.74 297.077 126.338C297.077 127.138 297.376 128.537 297.775 130.236C298.474 132.935 299.671 136.433 301.167 140.531C301.766 142.13 302.364 143.829 303.063 145.529C304.359 148.827 305.756 152.325 307.053 155.824C312.24 168.817 317.627 181.011 317.627 181.011H326.007C325.907 180.711 322.615 167.818 319.523 155.824C318.625 152.225 317.627 148.627 316.829 145.529C316.53 144.529 316.33 143.63 316.131 142.73C315.931 141.93 315.732 141.131 315.532 140.431C315.333 139.532 315.133 138.732 314.934 138.032C313.936 134.134 314.136 131.735 315.333 130.136C315.931 129.337 316.729 128.737 317.727 128.237C319.323 127.438 321.418 126.938 323.712 126.238C325.209 125.838 327.802 125.339 330.995 125.039C332.192 124.939 333.489 124.739 334.885 124.639C340.172 124.139 346.258 123.739 350.846 123.539C352.542 123.14 354.138 122.74 355.635 122.24C356.433 120.141 356.133 116.343 355.834 114.444ZM326.905 123.439C328.8 123.839 330.795 124.239 332.89 124.439C330.795 124.139 328.8 123.839 326.905 123.439Z" fill="#91C4DE"/>
<path d="M346.258 89.4562C344.462 86.9574 343.065 84.1588 342.068 81.2602C341.669 79.9608 341.27 78.7614 340.97 77.462C340.771 76.5625 340.571 75.6629 340.272 74.8633C340.272 74.7634 340.172 74.6634 340.172 74.5635V74.4635C339.873 73.2641 339.474 72.0647 339.075 70.8653C338.975 70.6654 338.975 70.4655 338.875 70.2656C336.581 63.4689 333.788 57.5718 331.693 53.7736C331.493 53.3738 331.194 52.8741 330.895 52.4743C329.798 51.075 328.201 49.9755 326.506 49.4758C325.708 49.2759 325.009 49.1759 324.111 49.1759H316.729V54.2734C319.922 53.7736 322.116 53.074 322.815 52.2744C324.111 50.6752 327.004 51.6747 329.199 53.6737C332.192 56.2724 333.688 60.4704 327.703 61.8697C322.316 63.0691 317.827 63.269 314.834 63.169C311.941 63.0691 310.345 62.6693 310.345 62.6693L311.342 65.368L313.238 70.2656L313.437 70.8653C315.333 73.5639 317.029 76.0627 318.425 78.4615C318.625 78.7614 318.824 79.0613 318.924 79.3611C319.124 79.7609 319.423 80.1607 319.622 80.6605C319.722 80.8604 319.822 81.0603 319.922 81.2602C325.807 91.755 327.802 99.951 328.401 104.649C328.8 107.647 328.7 109.246 328.7 109.246C328.7 109.246 331.493 108.547 335.384 108.147C341.669 107.447 350.647 107.547 355.335 112.345C354.238 105.448 350.846 96.0529 346.258 89.4562Z" fill="#74A8C2"/>
<path d="M313.437 70.8652C315.333 73.5639 317.029 76.0627 318.425 78.4615C316.63 79.2611 314.834 80.1607 313.238 81.1602H299.97C306.155 77.0622 313.437 70.8652 313.437 70.8652Z" fill="#B7B7B7"/>
<path d="M300.07 81.1602H313.338C310.744 82.8593 308.449 84.7584 306.654 86.8574V83.559H296.279C297.476 82.9593 298.773 82.0597 300.07 81.1602Z" fill="#B2B2B2"/>
<path d="M308.35 114.044C308.25 114.044 308.15 114.144 308.15 114.144C306.654 112.745 305.457 111.245 304.459 109.646H304.758C305.656 111.245 306.953 112.645 308.35 114.044Z" fill="#FAC0C5"/>
<path d="M307.153 155.724H266.551V130.136H297.875C298.574 132.835 299.771 136.333 301.267 140.431H285.505V145.429H303.162C304.359 148.727 305.756 152.225 307.153 155.724Z" fill="#CECECE"/>
<path d="M235.926 7.99609H306.953C300.868 12.4939 302.863 18.4909 302.863 18.4909C302.863 18.4909 298.773 26.587 303.861 33.2837V55.3729C301.467 55.4728 298.973 55.5728 296.578 55.5728V16.7918H241.612C240.714 12.7937 238.021 9.69526 235.926 7.99609Z" fill="#B7B7B7"/>
<path d="M306.654 87.9569C305.058 89.756 303.861 91.5551 302.963 93.5541H302.564C303.462 91.1553 304.759 88.8564 306.654 86.7574V87.9569Z" fill="#A47CA5"/>
<path d="M306.654 90.9554C305.956 91.755 305.357 92.6546 304.858 93.5542H302.963C303.861 91.5551 305.058 89.756 306.654 87.9569V90.9554Z" fill="#A47CA5"/>
<path d="M306.654 90.9554V93.5542H304.858C305.357 92.6546 305.956 91.855 306.654 90.9554Z" fill="#A47CA5"/>
<path d="M266.551 93.6541H259.668H258.571V83.5591H260.965H262.96H266.152H266.651H269.644H271.839H274.632H278.622H281.216H282.114H285.505H290.992C291.591 84.1588 292.089 84.6585 292.588 84.7585C293.286 85.0584 294.683 84.4586 296.479 83.5591H306.853V86.8575C305.058 88.9564 303.661 91.2553 302.763 93.6541H266.551Z" fill="#A47CA5"/>
<path d="M335.783 7.99612C334.686 5.69725 332.79 3.49832 329.997 1.79916C320.121 -4.09795 317.727 6.89666 317.727 6.89666C314.934 5.59729 312.24 5.19749 309.946 6.197C308.749 6.79671 307.751 7.39641 306.953 7.99612C300.868 12.4939 302.863 18.491 302.863 18.491C303.162 18.1911 303.462 17.9912 303.861 17.6914C304.26 17.2916 304.759 17.0917 305.158 16.7918C310.145 13.3935 313.637 14.393 315.832 16.7918C319.124 20.1901 319.922 26.3871 319.922 26.3871C326.007 23.8883 324.909 30.585 323.912 34.2832C329.897 30.585 330.895 25.0877 329.199 19.9902C332.192 20.0902 334.287 18.7908 335.583 16.7918C337.08 14.393 337.279 11.0946 335.783 7.99612Z" fill="#261208"/>
<path d="M304.659 109.646H304.359C303.362 108.047 302.564 106.348 302.065 104.649H302.265C302.863 106.348 303.661 108.047 304.659 109.646Z" fill="#FAC0C5"/>
<path d="M304.559 115.943C299.372 118.942 297.077 122.54 297.077 126.238C297.077 127.038 297.376 128.437 297.775 130.136H266.452V93.6541H302.564C301.866 95.5531 301.566 97.5521 301.566 99.6511C301.566 99.7511 301.566 99.951 301.566 100.051C301.566 100.151 301.566 100.351 301.566 100.451C301.566 101.15 301.666 101.95 301.666 102.65C301.566 103.349 301.566 104.049 301.566 104.749H285.505V109.746H302.165C302.564 111.845 303.362 113.944 304.559 115.943Z" fill="#B2B2B2"/>
<path d="M303.96 65.6678C302.963 67.267 301.766 69.1661 300.469 70.8652H290.693C290.493 70.6653 290.294 70.4654 290.094 70.2655H296.678V62.4694C299.671 62.5693 302.265 62.5693 303.96 62.5693V65.6678Z" fill="#B7B7B7"/>
<path d="M303.96 62.5693C302.364 62.5693 299.671 62.4694 296.678 62.4694L303.96 62.5693Z" fill="#EA9260"/>
<path d="M320.021 26.2871C320.021 26.2871 319.124 20.0901 315.931 16.6918C313.637 14.293 310.245 13.2935 305.257 16.6918C304.858 16.9917 304.459 17.2915 303.96 17.5914C303.661 17.7913 303.362 18.0911 302.963 18.391C302.963 18.391 298.873 26.487 303.96 33.1837C304.16 33.3836 304.26 33.5835 304.459 33.7834C310.345 40.68 308.649 42.5791 313.537 42.5791H323.313V36.4821C323.313 36.4821 323.712 35.4826 324.012 34.0833C325.009 30.485 326.107 23.7883 320.021 26.2871Z" fill="#F7A57C"/>
<path d="M303.063 145.429H285.406V140.431H301.167C301.766 142.03 302.464 143.73 303.063 145.429Z" fill="#939393"/>
<path d="M302.564 93.6541H302.963C302.065 95.6531 301.566 97.852 301.467 99.951C301.467 99.851 301.467 99.6511 301.467 99.5512C301.566 97.4522 301.866 95.5531 302.564 93.6541Z" fill="#B2B2B2"/>
<path d="M302.265 104.649H302.065C301.866 103.949 301.766 103.249 301.666 102.55C301.666 102.45 301.666 102.35 301.666 102.25C301.866 102.95 302.065 103.849 302.265 104.649Z" fill="#FAC0C5"/>
<path d="M328.6 104.649C327.902 99.951 325.907 91.755 320.121 81.2602H318.725C319.124 81.0603 319.423 80.8604 319.822 80.6605C319.622 80.2607 319.323 79.8609 319.124 79.3611C318.924 79.0613 318.724 78.7614 318.625 78.4615C316.829 79.2612 315.033 80.1607 313.437 81.1602C310.844 82.7594 308.549 84.7585 306.754 86.7575V87.9569V90.9554V93.5541H304.958H303.063C302.165 95.5532 301.666 97.7521 301.666 99.8511C301.666 100.651 301.766 101.35 301.866 102.05C301.965 101.25 302.165 100.551 302.265 99.8511C302.065 100.551 301.965 101.35 301.866 102.05C301.965 102.85 302.165 103.749 302.464 104.549C302.963 106.348 303.761 107.947 304.858 109.546C305.856 111.146 307.053 112.545 308.549 113.944C312.839 112.145 318.425 110.546 325.608 109.546C326.705 109.346 327.902 109.246 329.199 109.047C328.9 109.147 328.999 107.547 328.6 104.649Z" fill="#EAAFB4"/>
<path d="M304.359 109.646C303.362 108.047 302.564 106.348 302.065 104.649C301.866 103.949 301.766 103.249 301.666 102.55C301.566 103.249 301.566 103.949 301.566 104.649C301.566 104.749 301.566 104.849 301.566 105.048C301.566 106.648 301.766 108.147 302.065 109.646C302.564 111.845 303.362 113.944 304.559 115.943C305.557 115.343 306.754 114.744 308.05 114.144C306.654 112.745 305.357 111.245 304.359 109.646Z" fill="#FAC0C5"/>
<path d="M302.065 109.646H285.406V104.649H301.467C301.467 104.749 301.467 104.849 301.467 105.048C301.566 106.548 301.666 108.147 302.065 109.646Z" fill="#939393"/>
<path d="M290.593 70.8652H300.369C298.274 73.5639 295.98 75.5629 294.384 74.4635C293.386 73.6639 292.089 72.3645 290.593 70.8652Z" fill="#B7B7B7"/>
<path d="M296.678 62.3694V70.1656H290.094C286.702 66.6673 282.712 62.3694 280.418 62.3694V61.8696L291.192 62.1695H291.291C293.087 62.2694 294.883 62.3694 296.678 62.3694Z" fill="white"/>
<path d="M296.678 62.3695C294.982 62.3695 293.087 62.2695 291.191 62.2695L296.678 62.3695Z" fill="#EA9260"/>
<path d="M296.678 16.7917L236.924 56.0725L233.632 53.9735C229.941 48.776 238.121 33.6834 241.413 23.2885C242.211 20.8897 242.211 18.6908 241.712 16.6918L296.678 16.7917Z" fill="#F4F4F4"/>
<path d="M290.892 83.5591H296.379C294.583 84.5586 293.187 85.0583 292.488 84.7585C291.99 84.5586 291.491 84.1588 290.892 83.5591Z" fill="#A47CA5"/>
<path d="M290.892 83.559H285.406V81.2601H288.997C289.595 82.1597 290.294 82.9593 290.892 83.559Z" fill="#B2B2B2"/>
<path d="M277.026 190.607L290.194 203.8H262.461L249.393 190.607H277.026Z" fill="#D6D6D6"/>
<path d="M313.238 70.2656L311.342 65.368L310.245 62.6693H305.557C305.557 62.6693 304.858 63.9687 303.761 65.7678C302.763 67.367 301.566 69.2661 300.269 70.9652C298.175 73.6639 295.88 75.6629 294.284 74.5635C293.286 73.8638 291.99 72.5644 290.493 70.9652C290.294 70.7653 290.094 70.5654 289.895 70.3655C286.503 66.8672 282.513 62.5693 280.218 62.5693C280.019 62.5693 279.819 62.5693 279.62 62.6693C276.427 63.9687 270.342 64.5684 268.347 62.6693C268.347 63.169 268.547 68.0666 271.24 68.5664C272.337 68.2665 273.135 68.4665 273.734 68.7663C276.926 68.8663 281.016 68.5664 281.016 68.5664C281.016 68.5664 281.415 69.1661 281.914 70.2656C282.014 70.4655 282.114 70.6654 282.213 70.8653C283.71 73.564 286.403 78.0617 288.698 81.2602C289.396 82.1597 289.994 82.9593 290.593 83.559H296.08C297.177 82.9593 298.474 82.1597 299.87 81.2602C305.956 77.0622 313.338 70.8653 313.338 70.8653L313.238 70.2656Z" fill="#EA9260"/>
<path d="M285.406 81.1602H282.014V83.459H285.406V81.1602Z" fill="#FFE133"/>
<path d="M285.406 80.1608V81.1603H282.014V80.1608H282.413H284.807H285.406Z" fill="#FFE133"/>
<path d="M284.807 78.0618H282.413V80.2607H284.807V78.0618Z" fill="#FFE876"/>
<path d="M282.014 81.1602H281.116V83.459H282.014V81.1602Z" fill="#B2B2B2"/>
<path d="M281.016 81.1602H278.423V83.459H281.016V81.1602Z" fill="#AC6EF4"/>
<path d="M281.016 78.9613V81.2602H278.423V78.9613H278.722H280.517H281.016Z" fill="#AC6EF4"/>
<path d="M280.617 75.9628H278.822V78.9613H280.617V75.9628Z" fill="#AC6EF4"/>
<path d="M280.318 61.9697V62.4694C280.118 62.4694 279.919 62.4694 279.719 62.5694C276.527 63.8687 270.442 64.4684 268.447 62.5694C269.644 62.3695 270.641 62.0696 271.639 61.6698L280.318 61.9697Z" fill="white"/>
<path d="M279.719 41.4797L263.758 53.6737C263.359 53.6737 262.86 53.6737 262.461 53.6737C261.663 53.3738 260.666 53.4738 259.768 53.6737L258.471 52.3743L276.926 39.1808L279.719 41.4797Z" fill="#F4F4F4"/>
<path d="M278.522 81.1602H274.532V83.459H278.522V81.1602Z" fill="#B2B2B2"/>
<path d="M277.026 181.811V190.707H249.393V181.811H259.668H266.551H277.026Z" fill="#544A53"/>
<path d="M274.532 81.1602H271.739V83.459H274.532V81.1602Z" fill="#31FFF0"/>
<path d="M274.532 79.3611V81.2602H271.739V79.3611H272.238H273.734H274.532Z" fill="#31FFF0"/>
<path d="M273.834 77.7618H272.337V79.3611H273.834V77.7618Z" fill="#A1FFF6"/>
<path d="M271.44 68.5664C272.537 68.3665 273.335 68.4665 273.934 68.7663C272.936 68.7663 272.038 68.6663 271.44 68.5664Z" fill="#F7A57C"/>
<path d="M271.739 81.1602H269.544V83.459H271.739V81.1602Z" fill="#B2B2B2"/>
<path d="M329.199 53.5738C327.004 51.6747 324.012 50.5752 322.815 52.1745C322.216 52.9741 319.922 53.6737 316.729 54.1735C313.238 54.7732 308.749 55.073 303.861 55.2729C301.467 55.3729 298.973 55.4728 296.578 55.4728C287.999 55.5728 280.019 55.2729 277.425 54.5733C273.634 53.5738 267.649 53.4738 263.758 53.4738L263.259 53.8736C263.958 54.4733 264.457 55.4728 264.257 57.3719C264.058 60.7702 262.96 61.4699 261.464 61.37C264.556 62.5694 266.651 62.7693 268.447 62.4694C269.644 62.2695 270.641 61.9697 271.639 61.5698L280.318 61.9697L291.092 62.2695H291.191L296.678 62.3695L303.96 62.5694H305.656C305.756 62.5694 305.756 62.5694 305.756 62.5694H310.445C310.445 62.5694 312.041 62.9692 314.934 63.0691C317.926 63.1691 322.416 62.9692 327.802 61.7698C333.688 60.3704 332.192 56.1725 329.199 53.5738ZM273.933 61.17C274.133 61.17 274.432 61.0701 274.632 61.0701C274.432 61.0701 274.233 61.0701 273.933 61.17Z" fill="#F7A57C"/>
<path d="M269.544 81.1602H266.551V83.459H269.544V81.1602Z" fill="#B6E4FB"/>
<path d="M269.544 79.9608V81.2602H266.551V79.9608H267.449H268.646H269.544Z" fill="#B6E4FB"/>
<path d="M271.44 68.5664C266.053 69.7658 251.289 65.268 251.289 65.268C253.583 63.4689 255.478 62.0696 256.376 61.5698C258.172 60.7702 260.067 61.4699 261.564 61.5698C264.656 62.7692 266.751 62.9691 268.547 62.6693C268.447 63.0691 268.646 68.0666 271.44 68.5664Z" fill="white"/>
<path d="M268.646 76.1627H267.449V79.9609H268.646V76.1627Z" fill="#7B8BFF"/>
<path d="M266.651 81.1602H266.152V83.459H266.651V81.1602Z" fill="#B2B2B2"/>
<path d="M259.668 93.6541V104.649V130.136V155.724V181.811H266.551V155.724V130.136V93.6541H259.668Z" fill="#7C6B7C"/>
<path d="M266.152 81.1602H262.96V83.459H266.152V81.1602Z" fill="#FF2CB9"/>
<path d="M266.152 79.9609V81.2602H262.96V79.661H263.858H265.155H266.152V79.9609Z" fill="#FF2CB9"/>
<path d="M265.155 75.463H263.858V79.561H265.155V75.463Z" fill="#FFA9E7"/>
<path d="M263.758 53.5737L263.259 53.9735C263.06 53.7736 262.761 53.6737 262.561 53.5737C262.96 53.5737 263.359 53.5737 263.758 53.5737Z" fill="#F7A57C"/>
<path d="M262.96 81.1602H260.965V83.459H262.96V81.1602Z" fill="#B2B2B2"/>
<path d="M258.471 155.724H259.568V181.811H249.393V190.706L262.561 203.9H260.566L247.398 190.607V188.907L235.926 181.811C235.926 181.811 238.919 169.717 242.211 155.724H258.471Z" fill="#E5E5E5"/>
<path d="M260.965 81.1602H258.571V83.459H260.965V81.1602Z" fill="#FFCCF1"/>
<path d="M260.965 77.462V81.1602H258.571H239.417C239.018 80.8604 238.52 80.5605 238.021 80.3606V77.462H242.61H254.082H260.965Z" fill="#FFCCF1"/>
<path d="M247.398 190.607L260.566 203.8L192.332 203.7L179.264 190.607H230.938H247.398Z" fill="#D6D6D6"/>
<path d="M259.668 130.136H258.571V155.624H259.668V130.136Z" fill="#CECECE"/>
<path d="M259.668 104.649H258.571V130.136H259.668V104.649Z" fill="#B2B2B2"/>
<path d="M259.668 93.6541H258.571V104.649H259.668V93.6541Z" fill="#CECECE"/>
<path d="M258.471 130.136V155.724H242.211C243.109 151.926 244.006 148.027 244.904 144.129H246.001V139.332C246.7 136.133 247.398 133.135 248.096 130.236L258.471 130.136Z" fill="#CECECE"/>
<path d="M258.471 104.649V130.136H248.096C249.792 122.34 251.089 116.243 251.289 113.944C251.388 113.144 250.989 112.245 250.291 111.245C250.89 109.246 251.289 107.047 251.289 104.949C251.289 104.849 251.289 104.749 251.289 104.549H258.471V104.649Z" fill="#B2B2B2"/>
<path d="M258.471 93.6541V104.649H251.189C251.189 103.949 251.089 103.249 251.089 102.55C251.189 101.85 251.189 101.051 251.189 100.351C251.189 100.251 251.189 100.051 251.189 99.9511C251.189 99.8511 251.189 99.6512 251.189 99.5513C251.189 97.5522 250.79 95.4533 250.091 93.5542H258.471V93.6541Z" fill="#CECECE"/>
<path d="M258.471 83.5591V93.6541H250.191C248.894 89.856 246.201 86.4577 242.709 83.5591H258.471Z" fill="#A47CA5"/>
<path d="M258.471 81.1602V83.459H242.709C241.712 82.6594 240.615 81.8598 239.417 81.1602H258.471Z" fill="#FFCCF1"/>
<path d="M254.182 76.1627H242.709V77.562H254.182V76.1627Z" fill="#FAC0C5"/>
<path d="M251.289 104.649C251.289 104.749 251.289 104.849 251.289 105.048C251.289 107.247 250.989 109.346 250.291 111.345C249.792 110.746 249.194 110.146 248.495 109.546C249.493 107.947 250.191 106.348 250.69 104.649H251.289Z" fill="#FFCED2"/>
<path d="M251.289 99.5512C251.289 99.6511 251.289 99.851 251.289 99.951C251.189 97.752 250.69 95.6531 249.892 93.6541H250.291C250.89 95.5531 251.289 97.4522 251.289 99.5512Z" fill="#FAC0C5"/>
<path d="M251.289 104.649H250.69C250.89 103.949 250.989 103.249 251.089 102.55C251.189 103.249 251.289 103.949 251.289 104.649Z" fill="#FFCED2"/>
<path d="M250.191 93.6541H249.792C248.096 89.856 245.104 86.4577 241.113 83.5591H242.709C246.301 86.4577 248.894 89.856 250.191 93.6541Z" fill="#A47CA5"/>
<path d="M249.792 93.6541H247.897C247.298 92.7546 246.7 91.855 246.001 90.9555V90.4557H245.602C243.508 87.9569 240.914 85.6581 237.921 83.5591H238.021H241.014C245.104 86.4577 248.196 89.856 249.792 93.6541Z" fill="#A47CA5"/>
<path d="M248.695 70.2656H245.303C245.503 70.0657 245.802 69.8658 246.001 69.6659L248.695 70.2656Z" fill="white"/>
<path d="M247.997 93.6541H246.101V90.9554C246.799 91.7551 247.398 92.6546 247.997 93.6541Z" fill="#A47CA5"/>
<path d="M247.398 188.907V190.707H230.938C230.938 187.608 229.941 184.809 228.145 182.511L228.743 181.811H235.826L247.398 188.907Z" fill="#392D2E"/>
<path d="M246.101 90.8555V93.5541H231.936V90.3557H245.702C245.802 90.5556 245.902 90.7555 246.101 90.8555Z" fill="#A47CA5"/>
<path d="M246.101 139.232V144.029H245.004C245.303 142.43 245.702 140.831 246.101 139.232Z" fill="#939393"/>
<path d="M246.102 90.3557V90.8555C246.002 90.7555 245.902 90.5556 245.702 90.3557H246.102Z" fill="#A47CA5"/>
<path d="M245.702 90.3557H231.936V93.5542H219.466V83.5591H238.021C241.014 85.5581 243.607 87.857 245.702 90.3557Z" fill="#A47CA5"/>
<path d="M242.709 83.559H241.113C240.116 82.8593 239.118 82.2596 238.121 81.56V81.1602H239.517C240.615 81.9598 241.712 82.6594 242.709 83.559Z" fill="#FFCCF1"/>
<path d="M241.413 67.3669L241.612 67.5668L239.617 69.266C238.919 69.7658 238.121 70.0656 237.323 70.0656C236.425 70.0656 235.527 69.7658 234.928 69.166C234.13 68.3664 233.033 67.4669 231.936 66.3674C232.634 64.8682 233.233 63.3689 233.632 61.8696L241.413 67.3669Z" fill="white"/>
<path d="M241.113 83.5591H238.121V81.5601C239.118 82.1598 240.216 82.8594 241.113 83.5591Z" fill="#FFCCF1"/>
<path d="M239.417 81.1602H238.021V80.3606C238.52 80.6604 239.018 80.9603 239.417 81.1602Z" fill="#FFCCF1"/>
<path d="M238.121 81.1602V81.56C237.921 81.46 237.622 81.2601 237.422 81.1602H238.121Z" fill="#FAC0C5"/>
<path d="M275.131 70.8653C275.131 70.6654 275.031 70.4655 275.031 70.2656C274.831 69.6659 274.532 69.1662 273.933 68.7664C272.936 68.7664 272.138 68.6664 271.44 68.5664C266.053 69.7659 251.289 65.2681 251.289 65.2681C249.692 66.5674 247.897 68.0667 246.101 69.6659L248.795 70.2656L251.488 70.8653L267.35 74.4636C267.35 74.4636 267.948 75.1632 268.846 75.7629C269.843 76.3626 271.24 76.8624 272.736 76.2627C274.233 75.4631 275.33 72.8643 275.131 70.8653Z" fill="#F7A57C"/>
<path d="M247.298 62.5693L236.924 56.0725L233.632 53.9736L228.444 50.6752L225.451 56.0725L231.038 59.9706L233.632 61.7697L241.413 67.267L241.612 67.4669L247.498 62.6693L247.298 62.5693Z" fill="#F7A57C"/>
<path d="M230.938 59.9706L233.532 61.7697C233.033 63.269 232.434 64.7682 231.836 66.2675C230.539 65.0681 229.043 63.6688 227.546 62.1695L230.938 59.9706Z" fill="white"/>
<path d="M233.432 119.941H231.836V119.042C232.434 119.242 233.033 119.541 233.432 119.941Z" fill="#FFCED2"/>
<path d="M232.335 155.724L228.843 181.811L228.245 182.51C226.549 180.212 224.155 178.612 221.361 177.713L229.941 155.724H232.335Z" fill="#E5E5E5"/>
<path d="M228.145 182.411C229.941 184.709 230.938 187.508 230.938 190.607H179.164C179.164 186.908 180.66 183.51 183.154 181.011C185.549 178.512 188.94 177.013 192.731 177.013H199.315V179.712C199.315 182.71 201.709 185.109 204.702 185.109H205.001C207.994 185.109 210.388 182.71 210.388 179.712V177.013H213.082H217.371C218.668 177.013 219.965 177.213 221.162 177.613C224.055 178.512 226.449 180.212 228.145 182.411Z" fill="#5B5A5B"/>
<path d="M230.938 59.9706L227.546 62.1695C226.349 61.07 225.152 59.8706 223.855 58.6712L223.955 58.5713L225.451 55.9725L230.938 59.9706Z" fill="#F4F4F4"/>
<path d="M231.437 130.136C229.242 131.136 226.848 132.035 224.354 132.835L224.653 133.834C225.152 135.733 225.052 137.832 224.554 139.732L219.666 155.624L213.181 177.113H217.471C218.768 177.113 220.065 177.313 221.262 177.713L229.841 155.724L233.632 145.929L233.831 144.129L234.529 139.132L235.726 130.236L236.026 127.737C234.629 128.537 233.033 129.437 231.437 130.136Z" fill="#713D41"/>
<path d="M225.252 38.0813V43.5786L224.055 41.8794L225.252 38.0813Z" fill="#190C06"/>
<path d="M225.252 38.0813C225.052 38.1812 224.753 38.1813 224.454 38.1813C224.753 38.0813 225.052 38.0813 225.252 38.0813Z" fill="#EA9260"/>
<path d="M224.653 133.834C225.152 135.733 225.052 137.832 224.554 139.731L219.666 155.724H219.466V134.134C221.162 133.734 222.758 133.335 224.354 132.835L224.653 133.834Z" fill="#B2B2B2"/>
<path d="M288.997 81.1603C286.702 77.9618 284.009 73.464 282.513 70.7654C282.413 70.5655 282.313 70.3656 282.114 70.1656H274.931C275.031 70.3656 275.031 70.5655 275.031 70.7654C275.33 72.7644 274.233 75.3631 272.537 76.0628C271.041 76.6625 269.644 76.1627 268.646 75.563C267.649 74.9633 267.15 74.2636 267.15 74.2636L251.388 70.8653L248.695 70.2656H245.303C245.104 70.4655 244.804 70.6654 244.605 70.8653C242.011 73.0642 239.617 75.2632 237.921 76.8624C236.525 78.1617 234.33 78.2617 232.833 77.0623L228.145 73.564L224.554 70.8653L223.756 70.2656H217.072C216.972 70.4655 216.972 70.6654 216.872 70.8653C216.473 71.9648 216.074 73.1642 215.675 74.4635C219.566 74.5635 223.257 75.0633 226.748 75.9628C230.938 76.9623 234.729 78.5615 238.121 80.4606V77.562H242.709V76.1627H254.182V77.562H260.865V81.2602H262.86V79.661H263.758V75.563H265.055V79.661H266.053V79.9609V81.2602H266.551V79.9609H267.449V76.1627H268.646V79.9609H269.544V81.2602H271.739V79.3612H272.238V77.8619H273.734V79.3612H274.432V81.2602H278.423V78.9613H278.722V75.9628H280.517V78.9613H281.016V81.2602H281.914V80.2607H282.313V77.9618H284.707V80.1608H285.306V81.1603H288.997Z" fill="#B7B7B7"/>
<path d="M223.756 70.2655H217.072C217.271 69.7658 217.471 69.266 217.571 68.8662L219.865 67.3669L223.756 70.2655Z" fill="white"/>
<path d="M222.858 44.0784H223.158C223.158 44.1783 223.058 44.1783 223.058 44.2783L222.858 44.0784Z" fill="#EA9260"/>
<path d="M221.263 45.8776C221.263 45.9775 221.263 45.9775 221.263 45.9775C221.263 45.9775 221.163 45.9775 220.863 45.9775C221.063 45.8776 221.163 45.8776 221.263 45.8776Z" fill="#F06DF7"/>
<path d="M236.125 16.7918C235.926 13.8932 235.028 11.5944 233.632 10.295C232.135 8.89568 229.941 8.69578 227.147 10.3949C224.753 11.9942 223.057 14.1931 221.96 16.7918C219.566 22.1892 219.566 28.7859 219.765 32.8839C219.765 33.5836 219.865 34.1833 219.865 34.783C219.965 35.4826 220.164 36.1823 220.464 36.882C222.06 37.7815 223.357 38.1813 224.454 38.1813C224.753 38.1813 224.953 38.1813 225.252 38.0814C227.546 37.7815 228.644 35.7825 229.242 35.1828C234.43 29.9853 236.525 22.3891 236.125 16.7918Z" fill="#F7A57C"/>
<path d="M218.568 66.3674L219.865 67.3669L217.571 68.8662C218.169 67.267 218.568 66.3674 218.568 66.3674Z" fill="#F4F4F4"/>
<path d="M219.666 155.724L213.181 177.113H210.488V155.724H219.566H219.666Z" fill="#E5E5E5"/>
<path d="M219.466 134.134V155.724H210.388V135.434C213.58 135.234 216.573 134.734 219.466 134.134Z" fill="#CECECE"/>
<path d="M249.792 93.6541H247.897H246.001H231.836H219.466H216.374V83.559H219.466H238.021H238.121V81.56C237.921 81.46 237.722 81.2601 237.422 81.1602H238.121V80.3606C234.729 78.4615 230.938 76.9623 226.748 75.8628C223.257 74.9632 219.566 74.4635 215.675 74.3635C215.675 74.4635 215.576 74.5634 215.576 74.6634C215.576 74.7633 215.476 74.9632 215.476 75.0632C214.877 76.9622 214.279 79.0612 213.78 81.1602C212.383 86.6575 211.685 91.9549 213.481 93.854C213.481 93.854 215.975 94.6536 219.566 95.853C225.252 97.852 233.931 101.05 240.814 104.549C243.807 106.048 246.5 107.747 248.396 109.246C249.393 107.747 250.092 106.148 250.59 104.549C250.79 103.749 250.989 102.95 251.189 102.05C251.289 101.35 251.388 100.551 251.388 99.851C251.189 97.7521 250.69 95.6531 249.792 93.6541Z" fill="#FAC0C5"/>
<path d="M219.466 83.5591H216.374V93.6541H219.466V83.5591Z" fill="#A47CA5"/>
<path d="M215.376 40.3802V41.3798C215.276 41.0799 215.176 40.7801 214.977 40.5801L214.877 40.4802V40.3802H215.376Z" fill="#EA9260"/>
<path d="M224.554 38.0813C223.456 38.0813 222.159 37.6815 220.563 36.782C220.264 36.0823 220.065 35.3827 219.965 34.683C219.865 34.1833 219.865 33.4836 219.865 32.7839L216.972 36.5821H215.476H213.082L214.977 40.2803L215.476 40.3802V41.3797C215.875 42.3792 216.174 43.6786 216.374 45.2778C216.374 45.2778 218.867 46.4772 220.962 46.0774C221.062 46.0774 221.262 45.9775 221.361 45.9775C222.159 45.7776 222.758 45.2778 223.157 44.3783L222.958 44.1783H223.257C223.456 43.7785 223.556 43.2788 223.556 42.6791C223.556 42.2793 223.556 41.8795 223.556 41.2798L224.055 41.8795L225.252 38.0813C225.052 38.1813 224.753 38.1813 224.554 38.0813Z" fill="#EA9260"/>
<path d="M212.483 45.8776C212.683 46.5772 212.783 46.977 212.783 47.077C212.483 46.5772 212.383 46.1774 212.483 45.8776Z" fill="#F06DF7"/>
<path d="M154.823 7.99609H210.987C210.189 8.9956 209.391 10.0951 208.592 11.3944C207.495 13.3934 206.597 15.0926 205.899 16.6918H126.891V39.9804H123.2V48.976H121.604V70.8653H119.11V55.3729V7.99609H154.823Z" fill="#B7B7B7"/>
<path d="M199.315 155.724V177.113V179.812C199.315 182.81 201.709 185.209 204.702 185.209H205.001C207.994 185.209 210.388 182.81 210.388 179.812V177.113V155.724H199.315Z" fill="#777777"/>
<path d="M205.101 135.633C203.106 135.633 201.21 135.534 199.315 135.434V139.132V144.129V155.724H210.388V135.434C208.692 135.534 206.897 135.633 205.101 135.633Z" fill="#777777"/>
<path d="M250.291 111.345C249.792 110.746 249.194 110.146 248.495 109.546C248.396 109.446 248.396 109.446 248.296 109.446C246.4 107.847 243.707 106.248 240.714 104.749C233.831 101.25 225.152 97.952 219.466 96.0529C215.775 94.7535 213.381 94.0539 213.381 94.0539C212.184 93.6541 210.887 93.4542 209.69 93.3542C206.797 93.2543 204.004 94.1538 201.31 95.6531C196.921 97.952 192.931 101.75 190.137 104.849C187.444 107.847 185.748 110.246 185.748 110.246L219.466 116.743L230.539 118.842C231.038 118.942 231.437 119.042 231.836 119.242C232.434 119.441 232.933 119.741 233.432 120.141C233.731 120.341 234.031 120.641 234.23 120.841C234.33 120.941 234.43 121.041 234.43 121.141C235.726 122.64 236.425 124.639 236.125 126.738L236.026 127.937L235.726 130.436L234.529 139.332L233.831 144.329L233.632 146.128L232.335 155.924L228.843 182.011H235.926C235.926 182.011 238.919 169.917 242.211 155.924C243.109 152.125 244.006 148.227 244.904 144.329C245.303 142.73 245.702 141.131 246.001 139.532C246.7 136.333 247.398 133.335 248.096 130.436C249.792 122.64 251.089 116.543 251.289 114.244C251.388 113.145 250.989 112.245 250.291 111.345ZM236.624 119.941C237.323 119.541 238.021 119.142 238.619 118.842C237.921 119.142 237.323 119.541 236.624 119.941ZM246.101 119.142C246.001 119.242 245.902 119.441 245.802 119.541C245.802 119.441 246.001 119.242 246.101 119.142ZM244.306 114.544C245.004 113.844 245.702 113.145 246.401 112.445C245.802 113.145 245.104 113.844 244.306 114.544Z" fill="#8E5459"/>
<path d="M263.259 53.9736C263.06 53.7737 262.761 53.6737 262.561 53.5737C261.264 53.5737 260.267 53.6737 259.868 53.6737C259.768 53.6737 259.668 53.6737 259.668 53.6737C258.471 53.9736 257.474 54.4733 257.474 54.4733L247.498 62.6693L241.612 67.4669L239.617 69.1661C238.919 69.6659 238.121 69.9657 237.323 69.9657C236.425 69.9657 235.527 69.6659 234.928 69.0662C234.13 68.2665 233.033 67.367 231.936 66.2675C230.639 65.0681 229.142 63.6688 227.646 62.1695C226.449 61.0701 225.252 59.8707 223.955 58.6713C220.763 55.5728 217.67 52.4743 215.476 50.1754C214.179 48.7761 213.181 47.5767 212.782 46.977C212.483 46.4772 212.383 46.0774 212.483 45.7776C211.984 43.8785 210.687 40.5801 208.193 40.9799C206.897 41.1798 205.4 42.2793 203.405 44.878C204.203 48.4763 206.099 51.9745 208.193 55.073C210.588 58.5713 213.381 61.4699 215.476 63.4689C217.271 65.268 218.568 66.2675 218.568 66.2675L219.865 67.267L223.756 70.1656H230.04H223.756L224.554 70.7653L228.145 73.464L232.833 76.9623C234.33 78.1617 236.525 78.0617 237.921 76.7624C239.617 75.2631 242.111 73.0642 244.605 70.7653C244.804 70.5654 245.104 70.3655 245.303 70.1656C245.503 69.9657 245.802 69.7658 246.001 69.5659C247.797 67.9667 249.593 66.4674 251.189 65.1681C253.483 63.3689 255.379 61.9696 256.276 61.4699C258.072 60.6703 259.967 61.3699 261.464 61.4699C262.96 61.4699 264.058 60.8702 264.257 57.4718C264.457 55.6727 263.958 54.5733 263.259 53.9736ZM229.641 70.8653C229.741 70.7653 229.741 70.6654 229.841 70.5654C229.741 70.5654 229.741 70.7653 229.641 70.8653Z" fill="#EA9260"/>
<path d="M241.612 16.7918C240.714 12.7938 237.921 9.79525 235.926 7.99613C234.629 6.79672 233.632 6.19701 233.632 6.19701C233.632 6.19701 220.563 -3.59818 210.987 7.99613C210.189 8.99564 209.391 10.0951 208.592 11.3945C207.495 13.3935 206.597 15.0927 205.899 16.6919C205.6 17.3915 205.4 17.9912 205.201 18.6909C201.909 28.2862 206.099 31.8844 201.709 41.4797C201.809 41.3798 201.809 41.2798 201.909 41.1799C202.308 40.7801 202.607 40.3803 203.006 39.9805C203.405 39.5807 203.804 39.2808 204.203 38.9809C205.7 37.7815 207.096 37.1818 208.193 36.882C209.59 36.4822 210.388 36.4822 210.388 36.4822H212.982H215.376H216.872L219.765 32.684C219.466 28.586 219.566 21.9893 221.96 16.5919C223.057 13.9932 224.753 11.6943 227.147 10.1951C229.841 8.39594 232.035 8.59584 233.632 10.0951C235.028 11.3945 235.826 13.7933 236.125 16.5919C236.525 22.1892 234.529 29.7855 229.342 34.9829C228.743 35.5826 227.646 37.5816 225.352 37.8815V43.3788L229.342 48.976L228.444 50.5753L233.632 53.8736C229.941 48.6762 238.121 33.5836 241.413 23.1887C242.111 20.9898 242.111 18.7908 241.612 16.7918Z" fill="#261208"/>
<path d="M126.991 16.7917H205.999C205.7 17.4914 205.5 18.0911 205.301 18.7908L143.451 59.4708C143.251 59.2709 143.152 59.071 142.952 58.8711C142.354 58.2714 141.556 57.7717 140.658 57.5718V49.9755H137.665V57.4718C135.47 58.0715 133.775 60.1705 133.775 62.5693V65.4679C133.775 65.5678 133.775 65.5678 133.775 65.6678L130.682 67.6668V48.976H128.687V46.0774H133.775V39.7805H128.388V39.9804H126.991V16.7917Z" fill="#F4F4F4"/>
<path d="M143.351 59.3708L205.201 18.6908C201.909 28.2861 206.198 31.8843 201.709 41.4796C201.011 42.3792 200.612 43.1788 200.412 43.9784C195.225 53.2738 187.244 63.7687 186.047 70.1656H156.22C156.918 69.6658 157.417 68.7662 157.417 67.7667V62.0695C157.417 60.8701 156.619 59.7707 155.621 59.3708V55.8726H152.629V59.1709C151.332 59.4708 150.334 60.6702 150.334 62.0695V67.7667C150.334 68.7662 150.833 69.5658 151.531 70.1656H141.655C143.351 69.266 144.548 67.4669 144.548 65.4679V62.5693C144.449 61.3699 144.05 60.2704 143.351 59.3708ZM179.962 59.7707L198.118 45.8775L195.325 43.5786L176.87 56.7721L179.962 59.7707Z" fill="white"/>
<path d="M185.648 155.724H199.215V177.113H192.631C188.94 177.113 185.549 178.613 183.055 181.111C180.66 183.61 179.064 186.908 179.064 190.707L192.133 203.8L152.329 203.7L130.782 182.111C130.981 180.512 131.081 178.912 131.081 177.213L132.178 155.624H185.648V155.724Z" fill="#E5E5E5"/>
<path d="M199.315 144.029V155.624H185.748V132.735C189.938 134.034 194.527 134.934 199.315 135.334V139.032H195.524V144.029H199.315Z" fill="#CECECE"/>
<path d="M199.315 139.032H195.524V144.029H199.315V139.032Z" fill="#939393"/>
<path d="M198.118 45.8775L179.962 59.7707L176.969 56.7721L195.425 43.5786L198.118 45.8775Z" fill="#F4F4F4"/>
<path d="M186.047 70.2655C186.047 70.4654 185.948 70.6653 185.948 70.8652C185.549 73.7638 186.845 75.6629 190.736 75.9627C191.334 74.2636 191.933 72.5644 192.731 70.8652C192.831 70.6653 192.931 70.4654 193.03 70.2655C193.429 69.4659 193.729 68.6663 194.128 67.8667C201.609 52.7741 199.415 47.9765 200.512 44.0784C195.225 53.2739 187.145 63.8687 186.047 70.2655Z" fill="#261208"/>
<path d="M225.252 43.5786L224.055 41.8795L223.556 41.2797C223.556 41.7795 223.556 42.1793 223.556 42.6791C223.456 43.2788 223.357 43.7785 223.257 44.1783C223.257 44.2783 223.157 44.2783 223.157 44.3782C222.758 45.2778 222.06 45.7775 221.361 45.9774C221.361 46.0774 221.361 46.0774 221.361 46.0774C221.361 46.0774 221.162 46.0774 220.962 46.0774C218.867 46.4772 216.374 45.2778 216.374 45.2778C216.174 43.6786 215.875 42.4792 215.476 41.3797C215.376 41.0798 215.276 40.78 215.077 40.5801L214.977 40.4801C214.977 40.4801 214.977 40.4801 214.977 40.3802L213.082 36.682H210.488C210.488 36.682 209.59 36.5821 208.293 36.9819C207.196 37.2817 205.799 37.8814 204.303 39.0808C203.904 39.3807 203.505 39.6805 203.106 40.0803C202.707 40.3802 202.408 40.8799 202.008 41.2797C201.909 41.3797 201.909 41.4796 201.809 41.5796C201.41 42.3792 201.011 43.1788 200.512 44.0784C199.415 47.9765 201.709 52.7741 194.128 67.8667C193.729 68.6663 193.33 69.4659 193.03 70.2655C192.931 70.4654 192.831 70.6653 192.731 70.8652C192.033 72.5644 191.334 74.2636 190.736 75.9627C190.636 76.2626 190.536 76.5625 190.437 76.9623C190.038 78.2616 189.639 79.461 189.339 80.7604C189.24 80.9603 189.24 81.1602 189.24 81.3601C186.845 90.5556 186.047 99.3513 185.848 104.749C185.748 108.147 185.848 110.146 185.848 110.146C185.848 110.146 187.544 107.747 190.237 104.749C193.03 101.65 197.021 97.852 201.41 95.5531C204.103 94.1538 206.897 93.2543 209.79 93.2543C210.987 93.2543 212.283 93.4542 213.481 93.9539C211.685 92.0549 212.383 86.7575 213.78 81.2602C214.279 79.2611 214.877 77.1622 215.575 75.1631C215.575 75.0632 215.675 74.8633 215.675 74.7633C215.675 74.6634 215.775 74.5634 215.775 74.4635C216.174 73.1641 216.573 71.9647 216.972 70.8652C217.072 70.6653 217.072 70.4654 217.172 70.2655C217.371 69.7658 217.571 69.266 217.67 68.8662C218.269 67.367 218.668 66.3675 218.668 66.3675C218.668 66.3675 217.371 65.3679 215.575 63.5688C213.481 61.5698 210.687 58.6712 208.293 55.1729C206.198 52.0745 204.303 48.5762 203.505 44.9779C205.5 42.3792 206.996 41.2797 208.293 41.0798C210.887 40.68 212.084 43.9784 212.583 45.8775C212.782 46.5772 212.882 46.977 212.882 47.0769C213.281 47.7766 214.179 48.876 215.575 50.2753C217.67 52.5742 220.763 55.6727 224.055 58.7712L224.155 58.6712L225.651 56.0725L228.644 50.6751L229.542 49.0759L225.252 43.5786ZM206.897 74.3635C207.096 74.3635 207.395 74.3635 207.595 74.3635C207.296 74.4635 207.096 74.3635 206.897 74.3635Z" fill="#DA8289"/>
<path d="M189.24 80.6605C189.14 80.8604 189.14 81.0603 189.14 81.2602H188.342C188.641 81.0603 188.94 80.8604 189.24 80.6605Z" fill="#FFCED2"/>
<path d="M185.648 81.1602H188.342C187.444 81.7599 186.546 82.3596 185.648 83.0592V81.1602Z" fill="#FAC0C5"/>
<path d="M156.22 70.2656H186.047C186.047 70.4655 185.948 70.6654 185.948 70.8653H154.424C155.023 70.8653 155.721 70.5655 156.22 70.2656Z" fill="#B7B7B7"/>
<path d="M119.11 70.8652H121.604H130.682H139.161H153.227H154.424H185.948C185.549 73.7638 186.845 75.6629 190.736 75.9627C185.349 77.1621 180.461 78.9613 176.171 81.2601H125.495H117.215V70.8652H119.11Z" fill="#B7B7B7"/>
<path d="M185.648 132.835V155.724H132.278L133.276 135.733C131.979 129.536 139.86 111.945 143.351 104.649H158.913C158.913 104.749 158.913 104.849 158.913 105.048C159.013 117.342 169.887 127.937 185.648 132.835ZM161.906 133.135V128.137H147.741V133.135H161.906Z" fill="#B2B2B2"/>
<path d="M233.432 119.941H231.836V119.042C231.437 118.842 230.938 118.742 230.539 118.642L219.466 116.543L185.748 110.046C185.748 110.046 185.648 108.047 185.748 104.649C185.948 99.2513 186.646 90.4556 189.14 81.2601H188.342C187.444 81.8598 186.546 82.4595 185.648 83.1592C179.962 87.557 176.471 93.3542 176.471 99.6511C176.471 101.35 176.77 103.049 177.269 104.749C178.566 109.047 181.558 112.945 185.648 116.143C192.532 121.44 202.607 124.839 213.88 124.839C215.775 124.839 217.67 124.739 219.466 124.539C224.853 124.039 229.941 122.64 234.33 120.741C234.031 120.341 233.731 120.141 233.432 119.941Z" fill="#EAAFB4"/>
<path d="M234.33 120.641C229.941 122.54 224.953 123.939 219.466 124.439C217.67 124.639 215.775 124.739 213.88 124.739C202.607 124.739 192.532 121.34 185.648 116.043C181.558 112.845 178.566 108.947 177.269 104.649C176.77 103.049 176.471 101.35 176.471 99.5512C176.471 93.2542 179.862 87.4571 185.648 83.0592V81.1602H188.342C188.641 80.9603 188.94 80.7604 189.24 80.5605C189.639 79.2611 189.938 78.0617 190.337 76.7623C186.446 77.8618 182.855 79.3611 179.763 81.0602C171.283 85.7579 165.896 92.6545 165.896 100.151C165.896 101.65 166.096 103.049 166.495 104.449C168.49 111.845 175.673 118.142 185.648 122.04C192.232 124.639 200.113 126.138 208.592 126.138C212.383 126.138 215.975 125.838 219.466 125.339C225.052 124.439 230.14 122.94 234.529 120.841C234.43 120.841 234.43 120.741 234.33 120.641Z" fill="#FFCED2"/>
<path d="M234.529 120.941C230.14 123.04 224.953 124.539 219.466 125.438C215.975 126.038 212.383 126.238 208.592 126.238C200.113 126.238 192.332 124.739 185.648 122.14C175.673 118.242 168.49 111.945 166.495 104.549C166.096 103.149 165.896 101.75 165.896 100.251C165.896 92.6546 171.183 85.8579 179.763 81.1602C182.855 79.3611 186.446 77.9618 190.337 76.8623C190.437 76.5625 190.536 76.2626 190.636 75.8628C185.249 77.0622 180.361 78.8613 176.072 81.1602C169.787 84.5585 164.799 89.0563 161.906 94.1538V95.3532H161.308C159.911 98.2518 159.113 101.35 159.013 104.549C159.013 104.649 159.013 104.749 159.013 104.949C159.013 117.243 169.986 127.837 185.748 132.735C189.938 134.034 194.527 134.934 199.315 135.334C201.21 135.534 203.106 135.534 205.101 135.534C206.897 135.534 208.692 135.434 210.388 135.334C213.481 135.134 216.573 134.634 219.466 134.034C221.162 133.634 222.758 133.235 224.354 132.735C226.848 131.935 229.142 131.036 231.437 130.036C233.033 129.237 234.629 128.437 236.125 127.537L236.225 126.338C236.525 124.439 235.826 122.44 234.529 120.941Z" fill="#FAC1C6"/>
<path d="M125.395 81.1602H176.072C169.787 84.5585 164.799 89.0563 161.906 94.1538V90.3557H147.741V95.3532H161.208C159.811 98.2518 159.013 101.35 158.913 104.549H143.351C144.349 102.55 144.947 101.35 144.947 101.35C143.451 101.55 141.955 102.75 140.458 104.549H125.395V81.1602Z" fill="#CECECE"/>
<path d="M161.906 128.037H147.741V133.035H161.906V128.037Z" fill="#939393"/>
<path d="M161.906 94.2538V95.4532H161.308C161.507 95.0534 161.707 94.6536 161.906 94.2538Z" fill="#FFCED2"/>
<path d="M161.906 90.3557V94.1538C161.707 94.5537 161.507 94.9535 161.308 95.3533H147.84V90.3557H161.906Z" fill="#939393"/>
<path d="M157.317 62.1696V67.8668C157.317 68.8663 156.818 69.6659 156.12 70.2656H151.332C150.633 69.7659 150.135 68.8663 150.135 67.8668V62.1696C150.135 60.7703 151.132 59.5708 152.429 59.271V64.0686H155.422V59.4709C156.619 59.8707 157.317 60.8702 157.317 62.1696Z" fill="#828282"/>
<path d="M151.432 70.2656H156.22C155.721 70.6654 155.123 70.8653 154.424 70.8653H153.227C152.529 70.8653 151.93 70.5655 151.432 70.2656Z" fill="#B7B7B7"/>
<path d="M155.522 59.3709V63.9687H152.529V59.171C152.728 59.071 152.928 59.071 153.127 59.071H154.325C154.823 59.171 155.222 59.271 155.522 59.3709Z" fill="#AFA68B"/>
<path d="M155.522 55.8726V59.3708C155.123 59.2709 154.823 59.1709 154.325 59.1709H153.127C152.928 59.1709 152.728 59.1709 152.529 59.2709V55.9725H155.522V55.8726Z" fill="#AFA68B"/>
<path d="M153.227 70.8653H139.161C140.059 70.8653 140.857 70.6654 141.655 70.2656H151.531C151.93 70.5655 152.529 70.8653 153.227 70.8653Z" fill="#B7B7B7"/>
<path d="M152.429 203.7H138.862L117.315 182.111H130.882L152.429 203.7Z" fill="#D6D6D6"/>
<path d="M144.947 101.35C144.947 101.35 144.349 102.55 143.351 104.549H140.458C141.955 102.85 143.551 101.65 144.947 101.35Z" fill="#FF50DA"/>
<path d="M140.458 104.649H143.351C139.86 111.945 131.979 129.537 133.276 135.733H127.191C127.989 132.935 133.974 112.645 140.458 104.649Z" fill="#DE8FFF"/>
<path d="M143.351 59.3709C143.152 59.171 143.052 58.9711 142.852 58.7712C142.254 58.1715 141.456 57.6717 140.558 57.4718V58.1715H137.665V57.4718C135.47 58.0715 133.775 60.1705 133.775 62.5693V65.4679C133.775 65.5678 133.775 65.5678 133.775 65.6678C133.874 67.6668 134.972 69.266 136.667 70.1656H141.655C143.351 69.266 144.548 67.4669 144.548 65.4679V62.5693C144.449 61.3699 144.05 60.2704 143.351 59.3709Z" fill="#AFA68B"/>
<path d="M136.568 70.2656H141.556C140.857 70.6654 139.959 70.8653 139.062 70.8653C138.164 70.8653 137.366 70.5655 136.568 70.2656Z" fill="#B7B7B7"/>
<path d="M140.558 57.4719V58.1715H137.665V57.4719C138.164 57.3719 138.563 57.272 139.062 57.272C139.56 57.272 140.059 57.3719 140.558 57.4719Z" fill="#828282"/>
<path d="M140.558 49.9755V57.4718C140.059 57.3718 139.56 57.2719 139.062 57.2719C138.563 57.2719 138.064 57.3718 137.665 57.4718V49.9755H140.558Z" fill="#828282"/>
<path d="M125.395 104.649H140.458C133.874 112.645 127.889 132.935 127.091 135.733C128.687 125.838 127.49 116.943 125.395 109.746V104.649Z" fill="#B2B2B2"/>
<path d="M139.062 70.8653H130.682V70.2656H136.667C137.366 70.5655 138.164 70.8653 139.062 70.8653Z" fill="#B7B7B7"/>
<path d="M64.6427 144.729V144.629L66.8374 136.433H114.222L117.414 182.111L138.962 203.7L86.6891 203.6L68.633 185.509L61.1512 157.823H63.6451V156.024H61.5502L62.8471 151.126H64.6427V144.729Z" fill="#E5E5E5"/>
<path d="M133.775 39.8805V46.0775H128.687V39.9804H128.388V39.8805H133.775Z" fill="#AFA68B"/>
<path d="M131.181 177.213L130.882 182.111H117.315L114.122 136.433H114.422C115.918 138.632 121.105 146.328 125.295 155.724C128.487 162.52 130.981 170.117 131.181 177.213Z" fill="#FFBE3B"/>
<path d="M128.687 48.976H126.991H123.3H121.704V70.8652H130.782V70.2655V67.8667V48.976H128.687ZM126.991 70.2655L128.886 69.0661L126.991 70.2655Z" fill="#828282"/>
<path d="M128.687 46.0775V48.9761H126.991V39.9805H128.388V46.0775H128.687Z" fill="#828282"/>
<path d="M128.688 39.9805H128.388V46.0775H128.688V39.9805Z" fill="#828282"/>
<path d="M125.395 109.746C127.49 116.943 128.687 125.838 127.091 135.733H125.395V109.746Z" fill="#D35CFF"/>
<path d="M126.891 39.9805H123.2V48.9761H126.891V39.9805Z" fill="#AFA68B"/>
<path d="M127.191 135.734C127.091 135.933 127.091 136.033 127.091 136.033C127.091 135.933 127.091 135.833 127.191 135.734H125.495V136.433H121.504C121.504 136.633 121.504 136.833 121.504 136.833C121.504 136.833 121.504 136.733 121.405 136.433H116.217H114.721C116.217 138.632 121.405 146.328 125.594 155.724C128.587 162.52 131.081 170.117 131.281 177.313L132.378 155.724L133.375 135.734H127.191Z" fill="#FFD939"/>
<path d="M125.395 135.734V136.433H121.405C121.405 136.233 121.405 136.033 121.405 135.734H125.395Z" fill="#FFD939"/>
<path d="M125.395 109.746V135.734H121.405C121.405 129.936 121.305 100.851 117.614 92.5547C119.509 95.5532 123.1 101.55 125.395 109.746Z" fill="#DE8FFF"/>
<path d="M121.305 136.433H116.117C116.018 136.233 116.018 136.033 115.918 135.833H121.105C121.205 136.033 121.205 136.233 121.305 136.433Z" fill="#FFD939"/>
<path d="M121.105 135.734H115.918C114.621 130.736 114.023 129.437 104.845 104.449C110.232 105.948 119.21 130.436 121.105 135.734Z" fill="#DE8FFF"/>
<path d="M116.117 136.433H114.621C114.422 136.233 114.322 136.033 114.322 135.933V135.833H116.018C115.918 136.033 116.018 136.233 116.117 136.433Z" fill="#FFD939"/>
<path d="M88.6842 101.05C93.6721 98.1519 102.95 102.05 101.852 102.35C100.755 102.55 73.4214 107.147 63.6451 119.042L62.8471 117.742C62.8471 117.742 58.1585 102.95 68.5332 102.25C79.0078 101.55 83.7961 103.949 88.6842 101.05Z" fill="#FF6E3B"/>
<path d="M86.6891 203.6L47.4845 203.5L29.4284 185.409H44.1925H53.5697H68.633L86.6891 203.6Z" fill="#D6D6D6"/>
<path d="M68.633 130.036L66.9371 136.433H66.0393L67.5357 130.936H64.6427V130.136H68.633V130.036Z" fill="#C15A27"/>
<path d="M61.1512 157.823L68.633 185.509H53.5697L53.7692 184.709H67.5357L60.7522 159.322L61.1512 157.923V157.823Z" fill="#A04015"/>
<path d="M60.6524 159.222L67.4359 184.609H53.7692L60.6524 159.222Z" fill="#E5E5E5"/>
<path d="M66.8374 136.433L64.6427 144.629V141.431L65.9396 136.433H66.8374Z" fill="#C15A27"/>
<path d="M64.6427 141.431V144.629V144.729C64.3435 144.729 64.0442 144.729 63.7449 144.729L64.6427 141.431Z" fill="#C15A27"/>
<path d="M64.6427 130.036V130.836H53.9687L53.7692 130.036H64.6427Z" fill="#C15A27"/>
<path d="M64.6427 144.729L62.9468 151.126H62.049L63.7449 144.729C64.0442 144.729 64.3434 144.729 64.6427 144.729Z" fill="#C15A27"/>
<path d="M63.6451 156.024V157.823H61.1512L61.0515 157.623L61.4505 156.024H63.6451Z" fill="#A86D56"/>
<path d="M62.9468 117.742L63.7449 119.042L60.2534 122.54H58.757L62.9468 117.742Z" fill="#F7A57C"/>
<path d="M62.8471 151.126L61.5502 156.024H60.7522V155.924L62.049 151.026H62.8471V151.126Z" fill="#C15A27"/>
<path d="M62.049 151.126L60.7522 156.024L59.4553 151.126H62.049Z" fill="#E5E5E5"/>
<path d="M61.5502 156.024L61.1512 157.623L60.7522 156.024H61.5502Z" fill="#C15A27"/>
<path d="M61.1512 157.623L61.0515 157.823H60.2534L60.1536 157.623L60.5527 156.024L61.1512 157.623Z" fill="#C15A27"/>
<path d="M61.0515 157.823L60.6524 159.222L60.2534 157.823H61.0515Z" fill="#C15A27"/>
<path d="M59.3556 151.126L60.6524 156.024V156.124H59.8544L58.5575 151.226H59.3556V151.126Z" fill="#A04015"/>
<path d="M60.3532 157.823L60.7522 159.222L53.8689 184.609H52.8714L60.1536 157.723H60.3532V157.823Z" fill="#C15A27"/>
<path d="M60.6524 156.024L60.2534 157.623L59.8544 156.024H60.6524Z" fill="#A04015"/>
<path d="M59.8544 156.024L60.2534 157.623L60.1536 157.823H37.9078L38.4066 156.024H59.8544Z" fill="#A86D56"/>
<path d="M60.1536 157.823L52.8714 184.709H44.8908L37.808 158.122L37.9078 157.823H60.1536Z" fill="#E5E5E5"/>
<path d="M59.8544 156.024H38.4066L39.7034 151.126H58.4578L59.8544 156.024Z" fill="#E5E5E5"/>
<path d="M57.1609 142.73L59.3556 151.126H58.4578L56.0636 142.13C56.4626 142.33 56.7619 142.53 57.1609 142.73Z" fill="#A04015"/>
<path d="M55.465 136.433L57.1609 142.73C56.8617 142.53 56.4626 142.33 56.1634 142.13L54.667 136.433H55.465Z" fill="#A04015"/>
<path d="M55.465 136.433H54.5672L53.0709 130.936H53.9687L55.465 136.433Z" fill="#A04015"/>
<path d="M42.9954 84.8585C46.0879 93.1544 55.9638 93.6541 55.2655 100.051C54.5672 106.448 47.3847 112.845 47.3847 112.845H45.8884C45.8884 112.845 36.6109 114.144 35.5136 104.549C34.516 95.0535 27.7325 94.2538 28.1316 85.1583C28.5306 75.9628 24.1413 74.1637 24.1413 74.1637C24.1413 74.1637 39.9029 76.6625 42.9954 84.8585Z" fill="#FF815A"/>
<path d="M53.7692 130.036L53.9687 130.836H53.0709L52.8714 130.036H53.7692Z" fill="#C15A27"/>
<path d="M53.7692 184.709L53.5697 185.509H44.1925L43.993 184.709H44.8908H52.8714H53.7692Z" fill="#C15A27"/>
<path d="M52.7716 126.538L53.6694 130.036H52.8714L52.1731 127.438H46.0879L45.3896 130.036H44.4917L45.3896 126.538H52.7716Z" fill="#A04015"/>
<path d="M52.8714 130.036L53.0709 130.836H45.19L45.3896 130.036H52.8714Z" fill="#C15A27"/>
<path d="M55.465 136.433L57.1609 142.73C59.3556 143.929 61.5502 144.629 63.7449 144.729L64.6427 141.431V136.433V130.936H53.9687L55.465 136.433Z" fill="#FFD939"/>
<path d="M60.2534 122.44H58.757H50.1779H48.7813H37.3092C38.3068 124.039 40.3019 126.838 42.9954 130.036H44.5915L45.4893 126.538H52.7716L53.6694 130.036H64.543V122.44H60.2534Z" fill="#FFD939"/>
<path d="M53.0709 130.936H45.1901L44.791 132.235C45.9881 133.634 47.3847 135.034 48.7813 136.433C51.0757 138.632 53.5697 140.631 56.0636 142.13L54.5672 136.433L53.0709 130.936Z" fill="#FFD939"/>
<path d="M46.0879 127.438L45.3896 130.036H52.8714L52.1731 127.438H46.0879Z" fill="#FFD939"/>
<path d="M47.285 112.945L50.0782 122.44H48.6816L45.8884 112.945H47.285Z" fill="#F7A57C"/>
<path d="M29.4284 185.509L47.4845 203.6L0 203.5V136.433H31.224L32.6206 141.83V151.126H35.1146L36.4114 156.024H34.3165V157.823H36.8104L36.9102 158.122L29.4284 185.509Z" fill="#E5E5E5"/>
<path d="M45.3896 130.036L45.1901 130.836H44.2922L44.4917 130.036H45.3896Z" fill="#C15A27"/>
<path d="M45.19 130.936L44.791 132.235C44.5915 131.935 44.2922 131.735 44.0927 131.436L44.1925 130.836L45.19 130.936Z" fill="#A04015"/>
<path d="M37.808 158.123L44.8908 184.71H43.993L37.409 159.822L37.808 158.123Z" fill="#C15A27"/>
<path d="M44.791 132.235L43.6937 136.433H42.7959L44.0927 131.436C44.392 131.735 44.5915 132.035 44.791 132.235Z" fill="#A04015"/>
<path d="M44.4917 130.036L44.2922 130.836H43.6937C43.4942 130.536 43.1949 130.236 42.9954 130.036H44.4917Z" fill="#C15A27"/>
<path d="M43.993 184.71L44.1925 185.509H29.4284L36.9102 158.123L37.3092 159.722L30.5257 184.61H43.993V184.71Z" fill="#A04015"/>
<path d="M37.3092 159.722L43.8932 184.609H30.6255L37.3092 159.722Z" fill="#E5E5E5"/>
<path d="M43.6937 136.433L39.7034 151.126H38.8056L42.7959 136.433H43.6937Z" fill="#A04015"/>
<path d="M43.6937 130.936H32.6206V130.136H42.8956C43.1949 130.336 43.3944 130.636 43.6937 130.936Z" fill="#C15A27"/>
<path d="M39.7034 151.126L38.4066 156.024H37.5087L38.8056 151.126H39.7034Z" fill="#A04015"/>
<path d="M38.8056 151.126L37.5087 156.024H37.3092L36.0124 151.126H38.8056Z" fill="#E5E5E5"/>
<path d="M38.4066 156.024L37.9078 157.823H37.7083L37.409 156.523L37.5087 156.124H38.4066V156.024Z" fill="#A04015"/>
<path d="M37.7083 157.823L37.808 158.122L37.409 159.722L37.0099 158.122L37.1097 157.823H37.7083Z" fill="#C15A27"/>
<path d="M37.409 156.423L37.7083 157.723H37.0099L37.409 156.423Z" fill="#C15A27"/>
<path d="M37.3092 156.024L37.409 156.423L37.0099 157.723H36.8104L36.3117 155.924H37.3092V156.024Z" fill="#C15A27"/>
<path d="M37.3092 122.44H35.3141L30.5257 117.642L31.7228 116.443L37.3092 122.44Z" fill="#F7A57C"/>
<path d="M35.9126 151.126L37.2095 156.024H36.3116L35.0148 151.126H35.9126Z" fill="#C15A27"/>
<path d="M36.4114 156.024L36.9102 157.823H34.4163V156.024H36.4114Z" fill="#A86D56"/>
<path d="M32.6206 138.532L36.0124 151.126H35.1146L32.6206 141.83V138.532Z" fill="#C15A27"/>
<path d="M64.6427 144.729L62.9468 151.126H64.7425L64.6427 144.729Z" fill="#FFBE3B"/>
<path d="M57.1609 142.73L59.3556 151.126H61.9493L63.6451 144.729C61.5502 144.629 59.3556 143.93 57.1609 142.73Z" fill="#FFBE3B"/>
<path d="M48.7813 136.433C47.3847 135.034 45.9881 133.635 44.791 132.235L43.6937 136.433L39.7034 151.126H58.5575L56.1634 142.13C53.5697 140.631 51.0757 138.632 48.7813 136.433Z" fill="#FFBE3B"/>
<path d="M44.1925 131.436C43.993 131.236 43.8932 131.036 43.6937 130.836H32.6206V136.333V138.332L36.0124 150.926H38.9053L42.8956 136.233L44.1925 131.436Z" fill="#FFBE3B"/>
<path d="M37.3092 122.44H35.3141H32.6206V130.036H42.9954C40.3019 126.938 38.3068 124.039 37.3092 122.44Z" fill="#FFBE3B"/>
<path d="M32.6206 151.126H35.1146L32.6206 141.83V151.126Z" fill="#FFBE3B"/>
<path d="M32.6206 138.532V141.83L31.224 136.433H32.1218L32.6206 138.532Z" fill="#C15A27"/>
<path d="M32.6206 130.036V130.836H30.6255L32.1218 136.333H31.224L29.5282 129.936H32.6206V130.036Z" fill="#C15A27"/>
<path d="M28.0318 106.548C32.8202 106.348 31.8226 116.543 31.8226 116.543L30.6255 117.742C18.8541 104.549 2.99272 107.247 2.99272 107.247C2.99272 107.247 7.78107 99.951 12.4697 103.049C17.258 106.148 23.2435 106.748 28.0318 106.548Z" fill="#FF815A"/>
</svg>
